<svg width="213" height="209" viewBox="0 0 213 209" fill="none" xmlns="http://www.w3.org/2000/svg">
<path d="M47.6553 207.435C47.8669 208.905 46.3327 207.422 45.7639 207.224C45.3539 207.038 44.9439 206.84 44.5471 206.641C44.5074 206.641 44.4677 206.641 44.428 206.641C44.3883 206.615 44.3751 206.575 44.3619 206.548C43.5418 206.125 42.735 205.661 41.9414 205.171C41.915 205.171 41.8885 205.171 41.8753 205.158C41.8488 205.158 41.8224 205.119 41.8092 205.092C38.3835 202.775 37.3915 198.539 36.7301 194.686C36.7566 194.315 36.0424 192.621 36.8095 192.978C36.9418 192.779 37.1798 192.872 37.3253 193.004C38.7803 193.587 40.0368 194.275 41.1743 195.096C41.2933 195.096 41.3991 195.149 41.4388 195.282C43.2112 196.619 44.6396 198.287 45.9491 200.405C47.4172 202.59 47.3776 204.907 47.6553 207.435Z" fill="white"/>
<path d="M39.4289 20.243C42.114 19.912 44.7725 19.1177 47.0872 17.6878C44.6535 15.7019 42.9208 12.9349 41.9288 9.95602C41.7965 9.41321 41.36 8.76448 41.5849 8.22166C41.7701 7.48026 42.3785 8.42025 42.6298 8.65856C42.5372 8.24814 41.9288 5.36195 42.7885 5.75914C43.3573 6.32843 43.5424 7.25519 44.2831 7.67885C45.1825 0.966475 45.9629 9.22786 47.8278 10.4856C48.9786 11.6639 50.5393 11.9287 52.1133 11.8757C53.0524 9.42645 52.9201 6.68589 52.6159 4.11745C52.4307 2.92591 51.8884 1.85351 51.3461 0.807603C51.5842 -0.0926758 53.0524 1.39014 53.4756 1.60197C53.6872 1.09887 53.4359 0.397182 53.793 0C54.3618 0.0529576 54.8776 1.3107 55.2083 1.77408C55.3935 1.48281 55.4596 0.278027 55.9622 0.701688C56.5706 1.77408 57.0336 2.96562 57.3246 4.15717C58.0388 6.16956 58.0123 8.32758 57.761 10.4062C60.1683 9.29405 64.1495 8.89687 65.1415 12.0346C65.2076 12.4318 65.2341 12.8025 65.2341 13.16C65.9615 12.8422 66.7154 12.5642 67.4561 12.2994C67.8 12.22 67.9323 12.8025 67.5487 12.8422C66.8213 13.5174 65.816 13.8219 65.0886 14.5104C65.2605 14.8678 66.9403 16.9861 65.8028 16.7743C65.4986 16.536 64.9695 16.2183 64.4669 15.8608C62.4697 19.2236 56.9939 20.6799 53.3037 20.1106C51.8355 21.3949 49.9838 22.176 48.1453 22.7982C47.4046 23.2087 39.667 25.4858 42.1404 22.9306C40.4871 23.4072 38.4766 23.3675 40.9765 21.792C40.0638 21.8318 36.9159 20.4019 39.4422 20.2033L39.4289 20.243Z" fill="white"/>
<path d="M149.937 27.1412C150.4 26.6646 151.63 27.1412 152.291 27.0485C152.648 27.0221 154.884 27.0221 153.878 27.6576C152.648 27.5649 151.379 27.4457 150.148 27.459C149.963 27.5119 149.857 27.2869 149.937 27.1412Z" fill="white"/>
<path d="M154.09 29.6157C154.381 29.6952 154.222 30.1718 153.944 30.1321C152.714 30.0129 151.418 30.0129 150.201 29.9202C150.096 29.8143 150.148 29.6422 150.228 29.5495C150.955 29.2583 151.841 29.6157 152.622 29.5495C153.111 29.5495 153.601 29.5098 154.077 29.629L154.09 29.6157Z" fill="white"/>
<path d="M150.757 24.9694C151.524 25.0224 152.291 25.1018 153.072 25.0886C153.363 25.115 154.289 24.9429 154.236 25.3931C154.222 25.5122 154.117 25.6446 153.984 25.6314C152.82 25.5917 151.656 25.5784 150.492 25.4593C150.043 25.7373 149.884 24.7841 150.757 24.9694Z" fill="white"/>
<path d="M162.093 185.524C161.55 187.43 160.598 189.336 158.72 190.224C156.709 191.746 154.117 191.587 151.776 191.137C151.194 190.978 148.919 190.899 149.739 189.906C152.834 186.927 156.405 184.729 160.836 184.981C160.982 184.676 162.172 185.179 162.093 185.524Z" fill="white"/>
<path d="M168.732 27.7356C169.83 24.8097 171.682 22.1353 173.917 19.9243C175.544 18.137 181.734 17.3427 184.115 17.6604C184.207 17.5677 184.326 17.4486 184.472 17.4883C185.649 16.972 186.707 15.7142 187.95 15.5156C188.995 16.0055 184.842 18.1635 184.392 18.4283C183.44 21.3012 181.456 23.7638 179.062 25.5776C177.515 26.6367 175.676 26.9677 173.851 27.206C173.031 27.1398 168.785 28.4373 168.745 27.7223L168.732 27.7356Z" fill="white"/>
<path d="M211.639 171.913C211.546 177.103 211.097 182.306 211.427 187.496C211.401 188.052 211.613 188.621 211.533 189.177C211.467 189.442 211.136 189.614 210.898 189.442C210.806 189.482 210.673 189.495 210.515 189.415C205.978 188.489 201.6 187.138 197.262 185.536C190.688 183.246 184.643 179.632 178.176 177.063C175.583 175.355 166.814 173.052 165.491 170.682C165.121 171.132 164.367 170.788 163.851 170.894C162.145 170.894 160.439 170.841 158.733 170.92C150.77 171.251 142.808 171.145 134.859 171.344C134.779 171.463 134.634 171.529 134.409 171.516C132.293 171.781 130.176 171.595 128.06 171.595C127.756 171.608 127.438 171.635 127.134 171.648C125.521 171.701 123.907 171.767 122.293 171.834C120.19 171.979 118.087 172.165 115.984 172.231C115.257 172.204 114.754 172.284 114.397 172.178C112.929 172.244 111.474 172.31 110.019 172.39C109.649 172.535 109.12 172.495 108.59 172.456C108.061 172.482 107.532 172.509 107.003 172.535C106.527 172.575 106.038 172.601 105.562 172.601C99.7551 172.866 93.9486 173.105 88.1289 173.237C83.7773 173.383 79.4655 174.084 75.1007 174.031C72.0057 173.819 68.9635 174.217 65.8817 174.243C65.723 174.561 65.5775 174.892 65.4585 175.236C65.0088 176.679 65.022 178.175 64.8501 179.658C64.9162 180.598 63.6068 180.955 63.2232 180.042C62.9322 180.73 62.456 180.929 61.636 179.618C61.3582 180.783 60.1017 181.313 59.6917 179.91C59.4272 180.916 58.3161 180.386 58.1442 179.592C57.5622 178.215 58.0384 176.269 58.8849 174.19C58.6203 174.19 58.3558 174.19 58.0913 174.19C54.7185 174.031 51.3589 173.872 47.9729 173.78C47.92 173.833 47.8406 173.833 47.7877 173.793C37.4842 176.176 27.2468 178.93 16.9433 181.286C13.835 181.895 10.9252 183.431 7.76402 183.749C7.76402 183.828 7.72434 183.921 7.65821 184.027C6.99688 184.332 6.19005 184.252 5.47582 184.279C4.29865 184.371 4.27219 183.444 4.16638 182.531C3.84894 179.023 3.59764 175.514 3.5315 172.006C2.93631 160.514 2.02367 149.049 1.45493 137.557C0.608424 122.795 1.17717 108.006 0.581971 93.2445C0.66133 87.4457 0.264532 81.6733 0 75.8877C0.0264532 69.2812 0.0529064 62.6615 0.264532 56.0551C0.383572 52.4539 0.370345 48.8396 0.66133 45.2517C0.78037 44.7089 0.70101 44.0867 0.991996 43.6233H0.925863C0.753917 43.5571 0.714237 43.2923 0.833276 43.1599C0.978769 42.9878 1.2433 43.0937 1.4417 43.0672C11.2558 42.9481 20.9642 44.6295 30.7122 45.5562C34.204 45.821 37.6958 46.1388 41.1877 46.483C41.439 46.5757 41.9813 46.5624 42.4574 46.5889C42.4839 46.5492 42.5103 46.5095 42.5368 46.483C42.669 46.3903 42.8278 46.483 42.8807 46.6154C42.8807 46.6154 42.8807 46.6286 42.8807 46.6419C43.0658 46.6816 43.2113 46.7345 43.3039 46.814C46.4915 45.7813 49.8643 45.874 53.1577 45.3974C75.0213 41.9551 97.1759 42.5509 119.225 41.6903C118.987 37.6788 118.643 33.6805 118.391 29.669C118.034 29.7219 117.664 29.7749 117.307 29.8146C116.95 29.5101 117.518 29.2983 118.352 29.1526C118.312 28.5833 118.286 28.014 118.246 27.458C117.928 27.5242 117.611 27.5904 117.294 27.6566C117.307 27.6566 117.32 27.6566 117.346 27.6301C117.267 27.6698 117.175 27.6698 117.108 27.6036C116.897 27.1932 117.505 27.0873 117.783 27.0343C117.928 27.0078 118.074 26.9946 118.219 26.9681C118.193 26.4783 118.167 25.9884 118.153 25.4985C117.862 25.5515 117.637 25.6045 117.492 25.6971C117.426 25.8295 117.214 25.8693 117.135 25.7236C117.069 25.3397 117.505 25.1278 118.127 24.9955C118.087 24.0157 118.061 23.036 118.047 22.0563C118.074 20.8515 116.698 16.1118 118.312 15.9C119.053 16.1251 119.357 16.9459 119.595 17.6079C119.45 16.8003 119.674 14.1789 120.785 15.7941C120.825 15.8206 120.878 15.9 120.918 16.0191C121.156 15.1056 121.804 14.5363 122.545 15.7676C122.822 16.3634 122.73 17.0386 122.836 17.6741C123.087 16.9856 123.06 16.0059 123.642 15.5425C124.158 15.4896 124.436 16.1118 124.542 16.5487C124.846 19.5143 124.595 22.5462 124.661 25.525C124.925 30.609 125.825 35.6399 126.063 40.7106C126.036 40.8165 126.063 41.0813 126.102 41.3991C126.499 41.3726 126.896 41.3593 127.293 41.3329C127.372 36.805 127.452 32.2904 127.795 27.7757C128.153 26.6107 128.642 10.4321 130.983 15.1983C131.512 13.6096 132.742 13.9008 132.716 15.4499C133.576 13.9008 134.806 14.3642 134.62 16.0853C135.149 15.1453 136.141 14.2715 136.604 15.9132C136.803 18.6803 136.234 21.5135 135.943 24.2673C136.71 24.307 137.477 24.3732 138.245 24.4129C138.536 24.4526 138.443 24.9293 138.165 24.916C137.398 24.8763 136.644 24.8233 135.89 24.7704C135.824 25.3132 135.811 25.8693 135.784 26.4253C136.155 26.4253 138.84 26.3459 137.715 27.074C137.067 26.9549 136.419 26.9284 135.758 26.9284C135.731 27.6169 135.718 28.3053 135.705 28.9937C136.102 29.0599 136.578 28.9937 136.922 29.1791C137.173 29.9205 136.075 29.4836 135.692 29.4968C135.612 33.3495 135.864 37.2022 136.168 41.0416C138.946 40.9224 141.736 40.9754 144.514 40.843C144.778 39.0424 145.056 37.2551 145.294 35.4546C145.651 31.2444 146.604 27.127 147.292 22.9698C147.569 21.1163 148.403 19.2496 148.284 17.3696C147.569 17.9124 147.172 18.7729 146.908 19.607C146.762 19.8453 146.445 19.607 146.485 19.382C146.723 18.3758 147.212 17.3828 147.053 16.3237C145.823 17.0121 145.718 20.1498 145.149 19.0907C145.188 18.0977 145.982 17.1313 145.625 16.1118C144.818 16.9591 144.527 18.1242 144.197 19.2098C144.025 19.7394 143.562 19.2231 143.76 18.8656C143.932 18.0845 144.607 16.6017 144.104 15.9132C142.636 17.1577 142.014 21.4076 141.432 23.367C141.049 26.0678 140.295 28.6892 140.043 31.4033C139.686 33.323 139.303 35.2295 138.906 37.136C138.8 37.8112 138.787 38.4996 138.774 39.1881C138.707 39.4661 138.364 39.3734 138.337 39.1086C138.205 37.1492 138.84 35.2825 139.131 33.376C139.594 31.2974 139.699 29.1526 140.149 27.074C140.877 23.9098 141.247 20.6794 142.437 17.6476C142.675 16.509 144.355 13.9803 144.778 16.4428C145.321 15.4499 145.982 15.1453 146.18 16.5222C147.358 14.9997 147.662 16.0853 147.516 17.4225C150.413 14.4304 147.49 24.0555 147.543 24.969C147.371 26.4385 147.093 27.8949 146.762 29.338C146.061 33.1509 145.704 37.0036 145.069 40.8298C145.956 40.7768 146.829 40.7106 147.715 40.6047C150.982 40.2605 154.262 40.0884 157.542 40.1943C159.698 39.9824 161.854 40.3664 163.997 40.3399C164.248 40.3664 164.38 40.5385 164.446 40.7636C164.473 40.7636 164.513 40.7636 164.552 40.7636C164.711 40.7106 164.83 40.8298 164.856 40.9754C168.52 39.6779 172.369 38.9498 176.112 37.9568C187.858 35.4546 199.709 33.3892 211.56 31.5887C211.956 31.5887 212.036 32.3168 211.613 32.3433H211.586C211.665 32.6081 211.705 32.8994 211.718 33.045C212.036 36.7785 211.679 40.5253 211.692 44.272C211.533 59.6827 211.97 75.1198 211.864 90.5304C212.168 112.044 211.758 133.558 211.48 155.059C211.48 160.699 211.48 166.286 211.546 171.926L211.639 171.913Z" fill="white"/>
<path d="M47.9992 173.754C47.9992 173.754 47.986 173.754 47.9727 173.754C47.8008 173.754 47.6817 173.582 47.6685 173.423C47.6685 173.396 47.6685 173.37 47.6685 173.343C47.6685 173.29 47.6685 173.238 47.6553 173.185C45.4332 146.918 44.0444 120.598 43.3831 94.2513C42.6556 82.4286 42.0737 70.5661 41.9811 58.7301C41.9811 55.3275 42.1398 51.925 42.2324 48.5225C42.2721 48.2445 42.2588 47.9532 42.2588 47.6619C42.2588 47.5428 42.2588 47.4369 42.2721 47.3309C42.2721 47.3177 42.2721 47.3045 42.2721 47.2912C42.2985 47.0529 42.3514 46.8279 42.4837 46.616C42.5101 46.5763 42.5366 46.5366 42.563 46.5101C42.6953 46.4174 42.854 46.5101 42.9069 46.6425C42.9069 46.6425 42.9069 46.6557 42.9069 46.669C42.9598 46.7881 42.9069 46.894 42.8673 47C42.8673 47.0397 42.8408 47.0662 42.8276 47.1059C42.8276 47.1853 42.8276 47.2648 42.8276 47.3574C42.8276 47.5031 42.8144 47.6355 42.8144 47.7678C42.1663 62.1723 42.9598 76.6032 43.727 90.9945C44.3751 105.558 44.7587 120.161 45.4464 134.724C46.0813 145.925 46.9411 157.019 47.8405 168.18C47.986 169.835 48.0124 171.503 48.1976 173.158C48.1976 173.238 48.2108 173.317 48.224 173.41C48.2373 173.555 48.1579 173.741 47.986 173.754H47.9992Z" fill="#212121"/>
<path d="M165.703 157.019C165.862 160.739 165.729 164.446 165.703 168.166C165.703 168.405 165.703 168.63 165.703 168.868C165.676 169.067 165.465 169.133 165.319 169.053C165.253 169.014 165.2 168.947 165.187 168.855C165.187 157.204 165.055 145.514 164.883 133.863C164.433 115.513 165.518 97.1635 165.809 78.8402C165.544 72.7103 165.597 66.5275 165.452 60.3977C165.108 56.4921 164.936 52.5865 164.896 48.6676C164.803 47.6879 164.023 43.3851 164.195 41.5845C164.235 41.1344 164.341 40.8299 164.526 40.7902C164.552 40.7902 164.592 40.7902 164.632 40.7902C164.79 40.7372 164.909 40.8564 164.936 41.002C164.949 41.0947 164.936 41.1873 164.843 41.2535C164.843 41.3992 164.843 41.5316 164.843 41.664C164.79 44.3913 165.399 47.0524 165.584 49.7532C165.65 51.1301 165.518 52.4938 165.557 53.8707C166.444 62.4233 166.034 71.0289 166.43 79.608C166.377 91.497 165.306 103.373 165.531 115.275C165.174 129.203 165.69 143.117 165.716 157.045L165.703 157.019Z" fill="#212121"/>
<path d="M165.888 169.862C165.821 170.14 165.716 170.391 165.544 170.629C165.544 170.643 165.517 170.669 165.504 170.682C165.134 171.133 164.38 170.788 163.864 170.894C162.158 170.894 160.451 170.841 158.745 170.921C150.783 171.252 142.82 171.146 134.871 171.344C132.609 171.397 130.348 171.477 128.073 171.596C127.768 171.609 127.451 171.636 127.147 171.649C125.533 171.702 123.92 171.768 122.306 171.834C119.674 171.94 117.042 172.059 114.41 172.178C112.941 172.245 111.487 172.311 110.032 172.39C109.555 172.417 109.079 172.43 108.603 172.456C108.074 172.483 107.545 172.509 107.016 172.536C106.54 172.562 106.05 172.576 105.574 172.602C99.7678 172.867 93.9613 173.105 88.1416 173.238C83.79 173.383 79.4781 174.085 75.1133 174.032C72.0183 173.82 68.9762 174.217 65.8944 174.244C65.6696 174.244 65.4579 174.244 65.2331 174.244H65.2198C65.3257 174.032 65.4183 173.807 65.5241 173.595C65.5241 173.595 65.5505 173.595 65.5637 173.595C65.7886 173.595 66.0134 173.569 66.2383 173.569C72.7061 173.304 79.1739 173.502 85.6153 172.682C86.7395 172.615 87.877 172.562 89.0013 172.509C95.8791 172.218 102.783 172.218 109.661 171.755C109.939 171.742 110.217 171.715 110.495 171.702C111.632 171.622 112.783 171.556 113.92 171.503C120.904 171.106 127.901 170.855 134.911 170.669C144.976 170.418 155.042 170.312 165.107 170.219C165.372 169.862 165.372 169.451 165.319 169.041C165.306 168.869 165.279 168.697 165.266 168.524C165.239 168.246 165.517 168.061 165.716 168.167C165.782 168.207 165.835 168.273 165.874 168.392C165.98 168.869 166.02 169.398 165.914 169.875L165.888 169.862Z" fill="#212121"/>
<path d="M59.8899 173.528C59.7973 173.687 59.6915 173.833 59.5989 173.978C59.5593 174.045 59.5063 174.111 59.4667 174.177C59.2683 174.177 59.0831 174.177 58.8847 174.19C58.6202 174.19 58.3556 174.19 58.0911 174.19C54.7183 174.031 51.3588 173.872 47.9727 173.78C47.9198 173.833 47.8405 173.833 47.7876 173.793C47.7611 173.793 47.7479 173.767 47.7347 173.753C47.6156 173.555 47.6024 173.409 47.6553 173.316C47.7082 173.224 47.8405 173.171 47.9992 173.144C48.0653 173.144 48.1182 173.131 48.1976 173.131C48.5547 173.118 48.978 173.171 49.1896 173.171C52.5227 173.224 55.8426 173.541 59.1625 173.515C59.3741 173.515 59.5857 173.515 59.7973 173.515C59.8238 173.515 59.8635 173.515 59.8899 173.515V173.528Z" fill="#212121"/>
<path d="M127.901 41.293C127.901 41.4916 127.875 41.7034 127.875 41.902C127.703 41.902 127.531 41.9285 127.359 41.9285C126.989 41.9549 126.631 41.9682 126.261 41.9947C126.102 41.9947 125.944 42.0079 125.785 42.0211C123.788 42.1271 121.804 42.2197 119.807 42.2992C119.648 42.2992 119.489 42.3124 119.33 42.3256C104.08 42.9347 88.8034 42.8287 73.5796 43.8217C65.842 44.1924 58.197 45.5296 50.5124 46.3901C48.2242 46.549 45.9095 46.6549 43.7403 47.4493C43.7007 47.5817 43.5287 47.6479 43.4229 47.542C43.2377 47.5684 43.0393 47.6744 42.8409 47.7538C42.669 47.82 42.4838 47.8465 42.3383 47.7538C42.3119 47.7273 42.2854 47.6876 42.2722 47.6479C42.2325 47.542 42.2325 47.4096 42.2854 47.3169C42.2854 47.3037 42.2986 47.2904 42.3119 47.2772C42.3648 47.1977 42.4441 47.1448 42.5367 47.1315C42.6558 47.0786 42.788 47.0389 42.9071 46.9991C43.0658 46.9462 43.2113 46.8932 43.37 46.8403C46.5576 45.8076 49.9304 45.9003 53.2238 45.4237C75.0874 41.9814 97.242 42.5772 119.291 41.7166C119.449 41.7166 119.608 41.7166 119.78 41.7034C121.764 41.624 123.748 41.5313 125.732 41.4254C125.878 41.4254 126.036 41.4121 126.182 41.3989C126.579 41.3724 126.975 41.3592 127.372 41.3327C127.544 41.3327 127.729 41.3194 127.914 41.3062L127.901 41.293Z" fill="#212121"/>
<path d="M164.697 41.6773C164.631 41.9023 164.327 42.0082 164.234 41.7037C164.221 41.6508 164.208 41.6111 164.195 41.5581C164.142 41.3595 164.089 41.1609 164.036 40.9623C160.161 40.9226 156.259 40.5916 152.383 40.9094C149.936 41.0947 147.489 41.2536 145.043 41.386C144.871 41.386 144.685 41.3992 144.513 41.4125C141.776 41.5449 139.051 41.6375 136.3 41.6905C136.141 41.6905 135.982 41.6905 135.837 41.6905C135.837 41.4787 135.824 41.2668 135.797 41.0682C135.943 41.0682 136.101 41.055 136.247 41.0418C139.024 40.9226 141.815 40.9756 144.593 40.8432C144.778 40.8432 144.95 40.8299 145.135 40.8167C146.021 40.7637 146.894 40.6975 147.78 40.5916C151.047 40.2474 154.328 40.0753 157.608 40.1812C159.764 39.9694 161.92 40.3533 164.062 40.3268C164.314 40.3533 164.446 40.5254 164.512 40.7505C164.552 40.8564 164.565 40.9623 164.591 41.0815C164.618 41.2271 164.644 41.3728 164.684 41.4919C164.697 41.5581 164.697 41.6111 164.684 41.664L164.697 41.6773Z" fill="#212121"/>
<path d="M211.692 32.3445H211.665C211.44 32.3842 211.202 32.4239 210.977 32.4504C210.289 32.5563 209.602 32.6622 208.914 32.7681C208.755 32.7946 208.596 32.8211 208.438 32.8343C193.796 35.0586 179.061 37.5079 164.816 41.6385C164.777 41.6385 164.724 41.665 164.684 41.6783C164.433 41.6783 164.314 41.2811 164.512 41.1222C164.539 41.1222 164.578 41.0957 164.605 41.0957C164.711 41.056 164.83 41.0163 164.935 40.9766C168.599 39.6791 172.448 38.9509 176.191 37.958C187.937 35.4557 199.788 33.3904 211.639 31.5898C212.035 31.5898 212.115 32.318 211.692 32.3445Z" fill="#212121"/>
<path d="M210.911 189.443C210.819 189.482 210.687 189.496 210.528 189.416C205.991 188.489 201.613 187.139 197.275 185.537C190.701 183.247 184.657 179.632 178.189 177.064C175.596 175.356 166.827 173.052 165.505 170.682C165.452 170.59 165.412 170.497 165.385 170.418C165.385 170.232 165.676 169.848 165.888 169.862C165.941 169.862 165.994 169.888 166.02 169.954C166.1 170.087 166.047 170.259 165.915 170.325C166.827 171.344 168.137 171.808 169.327 172.377C171.139 173.291 173.044 173.979 174.948 174.681C181.482 177.779 188.096 180.744 194.63 183.842C198.717 185.259 202.724 186.954 206.957 187.854C207.473 187.986 208.002 188.106 208.517 188.238C208.689 188.278 208.875 188.317 209.047 188.357C209.628 188.489 210.224 188.635 210.806 188.754C210.819 188.754 210.832 188.754 210.859 188.754C211.123 188.926 211.11 189.31 210.885 189.416L210.911 189.443Z" fill="#212121"/>
<path d="M211.639 171.913C211.547 177.103 211.097 182.306 211.428 187.496C211.401 188.052 211.613 188.621 211.533 189.177C211.467 189.442 211.137 189.614 210.898 189.442C210.687 189.283 210.674 188.965 210.832 188.767C210.859 188.727 210.898 188.687 210.938 188.661C210.436 182.915 210.951 177.169 211.031 171.423C210.819 155.589 211.176 139.768 211.428 123.933C211.507 93.496 211.229 63.0321 211.097 32.6345C211.044 32.5815 211.004 32.5286 210.978 32.4624C210.912 32.2903 210.938 32.0784 211.084 31.9593C211.401 31.7607 211.573 32.0387 211.666 32.3565C211.745 32.608 211.785 32.9125 211.798 33.0449C212.115 36.7784 211.758 40.5252 211.771 44.2719C211.613 59.6826 212.049 75.1197 211.943 90.5304C212.248 112.044 211.838 133.558 211.56 155.059C211.56 160.699 211.56 166.286 211.626 171.926L211.639 171.913Z" fill="#212121"/>
<path d="M208.531 188.211C208.346 185.761 208.491 183.299 208.676 180.863C208.875 172.429 208.227 163.956 208.61 155.536C208.941 137.861 208.478 120.213 208.346 102.552C207.909 84.2683 206.679 65.9582 208.068 47.6879C208.108 42.6702 207.684 37.5465 208.465 32.6082C208.716 32.3831 209.113 32.8333 208.835 33.0584C208.571 37.3876 208.399 41.7169 208.637 46.0462C208.425 52.9969 207.777 59.9873 207.883 66.938C208.729 97.2297 209.589 127.535 209.126 157.826C208.888 164.155 209.153 170.47 209.298 176.785C209.444 180.598 208.716 184.411 209.073 188.211C209.086 188.37 208.981 188.555 208.809 188.542C208.637 188.542 208.518 188.37 208.518 188.211H208.531Z" fill="#212121"/>
<path d="M47.9988 173.753C47.9723 173.766 47.9326 173.793 47.893 173.793L47.7871 173.819C37.4836 176.202 27.2462 178.956 16.9427 181.313C13.8344 181.922 10.9246 183.458 7.76343 183.775C7.55181 183.802 7.34018 183.815 7.11533 183.828C6.79789 183.881 6.29528 183.643 6.40109 183.338C6.42755 183.285 6.46723 183.219 6.53336 183.166C6.77144 183.113 7.00952 183.153 7.2476 183.193C7.39309 183.219 7.52535 183.233 7.67085 183.233C7.77666 183.233 7.88247 183.219 7.98829 183.18C21.1091 179.578 34.4018 176.295 47.6284 173.197C47.721 173.171 47.8136 173.157 47.9062 173.131C47.9326 173.144 47.9591 173.171 47.9855 173.184C48.1443 173.329 48.1443 173.634 47.9855 173.766L47.9988 173.753Z" fill="#212121"/>
<path d="M43.4493 47.0666C43.4493 47.2122 43.3302 47.3976 43.1583 47.3843C43.0525 47.3711 42.9467 47.3578 42.8276 47.3446C42.6425 47.3181 42.4573 47.3049 42.2721 47.2784C42.2721 47.2784 42.2721 47.2784 42.2589 47.2784C36.3201 46.6164 30.3682 46.2457 24.4294 45.5043C17.4193 44.6835 10.4224 43.8097 3.37266 43.664C3.21394 43.664 3.042 43.664 2.87005 43.664C2.38067 43.664 1.87805 43.664 1.38867 43.664H0.938965C0.767019 43.5979 0.727339 43.3331 0.846379 43.2007C0.991871 43.0286 1.2564 43.1345 1.4548 43.108C11.2689 42.9888 20.9773 44.6702 30.7253 45.597C34.2171 45.8618 37.7089 46.1795 41.2008 46.5238C41.4521 46.6164 41.9944 46.6032 42.4705 46.6297C42.6292 46.6297 42.7747 46.6561 42.907 46.6826C43.0922 46.7223 43.2377 46.7753 43.3302 46.8547C43.3964 46.9077 43.4361 46.9871 43.4361 47.0798L43.4493 47.0666Z" fill="#212121"/>
<path d="M7.77684 183.776C7.77684 183.855 7.73716 183.948 7.67102 184.054C7.00969 184.358 6.20287 184.279 5.48863 184.305C4.31147 184.398 4.28501 183.471 4.1792 182.558C3.86176 179.049 3.61045 175.541 3.54432 172.032C2.94912 160.541 2.03649 149.075 1.46774 137.584C0.621241 122.822 1.18999 108.033 0.594788 93.2713C0.674148 87.4724 0.27735 81.7 0.0128174 75.9144C0.0392706 69.308 0.0657238 62.6883 0.27735 56.0818C0.396389 52.4807 0.383162 48.8663 0.674148 45.2785C0.793187 44.7357 0.713828 44.1134 1.00481 43.65C1.01804 43.6236 1.04449 43.5971 1.05772 43.5706C1.16353 43.5044 1.2958 43.5574 1.37516 43.65C1.48097 43.7692 1.52065 43.9545 1.40161 44.0472C0.0392706 62.0131 0.885773 80.0451 1.30902 98.0374C1.75873 110.761 1.17676 123.497 1.95713 136.193C2.96235 151.975 3.584 167.809 4.89344 183.551C5.30346 183.604 5.64735 183.577 6.04415 183.59C6.08383 183.392 6.24255 183.352 6.4145 183.339C6.52031 183.339 6.62612 183.339 6.70548 183.339C7.08905 183.286 7.77684 183.392 7.76361 183.789L7.77684 183.776Z" fill="#212121"/>
<path d="M7.20892 183.022C6.46823 173.926 6.28306 164.791 5.89949 155.669C4.762 138.842 3.9155 122.028 3.77001 105.174C2.9235 85.0106 2.28863 64.8206 3.01609 44.6305C2.77801 44.6437 2.76478 44.3392 2.79124 44.1804C2.81769 43.9421 2.79124 43.664 2.98964 43.5052C3.14836 43.4125 3.3203 43.5316 3.38643 43.6905C3.86259 46.3649 3.38643 49.1451 3.29385 51.846C3.04254 63.3642 3.37321 74.8693 3.58483 86.3743C4.47102 103.215 4.20648 120.095 5.37043 136.909C6.38887 152.121 6.74599 167.373 7.72476 182.585C7.72476 182.85 7.87025 183.247 7.52636 183.326C7.35442 183.326 7.22215 183.167 7.20892 183.022Z" fill="#212121"/>
<path d="M171.285 51.9641C170.901 51.8185 171.073 51.2757 171.47 51.3154C171.734 51.3287 172.025 51.1301 172.264 51.2095C179.366 49.912 186.442 48.4557 193.585 47.423C196.534 46.7743 199.524 46.4963 202.513 46.1123C202.87 46.0461 203.029 46.6684 202.685 46.7743C192.13 47.9261 181.734 50.2165 171.298 51.9641H171.285Z" fill="#212121"/>
<path d="M172.448 61.3902C171.509 61.2843 171.932 60.2119 172.514 60.768C174.882 61.099 177.196 60.2517 179.537 60.0398C184.035 59.6294 188.532 59.2057 193.055 58.9939C195.793 58.7688 198.544 58.5041 201.295 58.61C201.52 58.61 201.758 58.5835 201.983 58.5438C202.34 58.5173 202.367 59.1528 202.023 59.1925C195.013 59.2852 188.016 59.9074 181.045 60.5429C178.162 60.5826 175.358 61.7742 172.461 61.377L172.448 61.3902Z" fill="#212121"/>
<path d="M173.084 70.2473C172.701 70.2473 172.33 70.2341 171.947 70.1944C171.775 70.3665 171.563 70.1149 171.55 69.9428C171.484 69.3338 173.203 69.784 173.613 69.678C182.779 69.6383 191.945 68.7513 201.111 69.1352C201.429 69.1617 201.402 69.731 201.072 69.731C191.734 69.3338 182.409 70.2871 173.071 70.2606L173.084 70.2473Z" fill="#212121"/>
<path d="M200.688 80.9068C193.215 80.7612 185.742 80.6155 178.269 80.7876C176.364 80.7744 174.38 80.9068 172.515 80.5096C172.277 80.3507 172.422 79.8741 172.727 79.98C175.332 80.3243 177.978 80.1654 180.596 80.1124C187.898 80.0727 195.212 80.2051 202.513 80.2846C202.751 80.311 202.817 80.642 202.672 80.8009C202.09 81.026 201.323 80.8274 200.674 80.8936L200.688 80.9068Z" fill="#212121"/>
<path d="M202.077 91.4704C193.188 91.0864 184.287 90.9011 175.399 90.8746C174.83 90.8216 172.489 90.8879 172.343 90.4245C172.29 90.2656 172.396 90.0008 172.608 90.0538C182.7 90.6098 192.884 90.3715 203.002 90.8746C203.174 90.8746 203.267 91.0202 203.267 91.1659C203.227 91.6955 202.46 91.3909 202.103 91.4704H202.077Z" fill="#212121"/>
<path d="M202.472 100.222C192.83 99.2821 183.148 99.4674 173.466 99.4939C173.268 100.116 172.249 98.9776 173.255 98.9511C179.22 98.7922 185.185 98.9511 191.15 98.9114C195.237 98.9511 199.298 99.4807 203.358 99.6395C203.517 99.6131 203.623 99.7719 203.636 99.9176C203.636 100.5 202.829 100.222 202.459 100.222H202.472Z" fill="#212121"/>
<path d="M202.724 111.012C192.87 110.218 183.003 109.714 173.136 109.119C173.057 109.264 172.832 109.211 172.806 109.052C172.515 108.96 172.568 108.404 172.912 108.457C173.374 108.602 173.877 108.576 174.353 108.616C180.305 108.96 186.27 109.105 192.183 109.741C195.992 109.82 199.814 110.125 203.597 110.376C204.179 110.972 203.161 111.078 202.724 110.999V111.012Z" fill="#212121"/>
<path d="M203.544 121.061C197.777 120.24 191.917 120.226 186.19 119.141C181.614 118.479 176.945 118.982 172.369 118.241C172.302 118.413 172.038 118.346 172.025 118.174C171.998 117.817 172.104 117.565 172.514 117.658C173.929 117.883 175.358 117.976 176.786 118.029C180.503 118.241 184.259 118.042 187.91 118.823C192.764 119.71 197.737 119.631 202.605 120.372C202.975 120.518 203.769 120.24 203.808 120.783C203.808 120.915 203.702 121.074 203.544 121.074V121.061Z" fill="#212121"/>
<path d="M203.717 133.599C196.72 132.474 189.683 131.335 182.647 130.488C179.38 130.051 176.033 130.051 172.833 129.243C172.251 129.442 172.012 128.237 173.163 128.701C178.361 129.76 183.731 129.707 188.943 130.726C193.903 131.441 198.836 132.143 203.756 132.977C204.087 133.003 204.061 133.599 203.717 133.586V133.599Z" fill="#212121"/>
<path d="M203.332 145.581C196.745 144.694 190.383 142.642 183.823 141.623C180.186 140.948 176.509 140.392 172.871 139.809C172.567 139.822 172.501 139.346 172.765 139.227C180.82 140.352 188.875 141.835 196.785 143.768C198.041 144.085 199.324 144.35 200.621 144.536C201.547 144.681 202.459 144.84 203.385 144.972C203.716 145.012 203.689 145.595 203.345 145.595L203.332 145.581Z" fill="#212121"/>
<path d="M203.399 156.133C193.413 154.12 183.691 150.943 173.639 149.208C173.546 149.275 173.427 149.235 173.361 149.142C173.084 149.05 173.084 148.573 173.401 148.533C179.882 149.804 186.31 151.3 192.685 152.995C195.212 153.604 197.712 154.319 200.251 154.888C201.322 155.087 202.407 155.325 203.478 155.497C203.835 155.537 203.769 156.186 203.399 156.133Z" fill="#212121"/>
<path d="M202.486 169.398C199.034 168.339 195.78 166.724 192.341 165.638C192.341 165.638 192.341 165.638 192.355 165.638C186.204 163.507 180.12 161.19 173.837 159.469C173.745 159.786 173.467 159.561 173.361 159.389C173.149 159.283 173.017 159.005 173.216 158.807C175.094 158.873 177.012 159.786 178.824 160.369C180.199 160.859 181.615 161.229 183.017 161.666C189.18 163.864 195.37 165.969 201.454 168.379C201.878 168.617 202.83 168.485 202.817 169.12C202.79 169.266 202.658 169.425 202.499 169.385L202.486 169.398Z" fill="#212121"/>
<path d="M14.206 170.418C14.1795 170.391 14.1531 170.352 14.1134 170.325C13.7033 170.431 13.1611 170.166 13.5579 169.743C14.8408 169.65 16.1767 169.398 17.4597 169.12C17.4597 169.12 17.4465 169.12 17.4332 169.12C22.7768 168.061 28.1865 167.399 33.5036 166.221C35.3818 165.863 37.1806 165.413 39.0323 165.029C39.3101 165.056 39.3497 165.479 39.1381 165.625C31.0302 167.584 22.6974 168.683 14.5102 170.285C14.4837 170.431 14.2985 170.524 14.1927 170.404L14.206 170.418Z" fill="#212121"/>
<path d="M12.9879 160.262C12.7631 160.262 12.4721 160.156 12.5382 159.878C12.5515 159.759 12.6705 159.614 12.816 159.653C16.5591 159.574 20.2626 158.713 23.9528 158.131C28.6086 157.323 33.304 156.82 37.9995 156.264C38.264 156.224 38.6211 156.012 38.7005 156.396C38.7269 156.542 38.6608 156.727 38.5021 156.767C35.0235 157.297 31.492 157.548 28.0001 158.064C23.0137 158.806 18.0405 159.984 13.0012 160.249L12.9879 160.262Z" fill="#212121"/>
<path d="M12.1952 148.334C11.9571 148.334 11.8248 148.083 11.9439 147.884C12.1555 147.619 12.592 147.712 12.8962 147.646C17.6842 147.169 22.4458 146.52 27.2603 146.401C30.8711 146.467 34.4423 146.044 38.0267 145.673C38.159 145.66 38.2516 145.766 38.2648 145.885C38.331 146.242 37.9209 146.295 37.6564 146.322C35.5137 146.481 33.371 146.679 31.2415 146.944C24.9059 146.838 18.6365 147.685 12.3407 148.294C12.301 148.321 12.2613 148.347 12.2084 148.347L12.1952 148.334Z" fill="#212121"/>
<path d="M12.8954 135.73C12.2473 135.703 11.5992 135.597 10.9511 135.505C10.594 135.77 10.5146 135.094 10.8453 134.988C12.3663 135.055 13.9138 135.266 15.4481 135.134C22.6566 134.843 29.8784 134.777 37.1001 134.975C37.444 134.949 37.4704 135.545 37.1398 135.597C29.0583 135.293 20.9768 135.637 12.8954 135.743V135.73Z" fill="#212121"/>
<path d="M37.1668 125.179C28.6753 124.491 20.1442 124.279 11.6394 124.451C11.4146 124.729 11.031 124.252 11.2956 124.027C14.3509 123.352 17.5517 124.08 20.66 123.908C26.4532 123.683 32.2201 124.385 38.0001 124.557C38.2778 124.583 38.3043 125.06 38.0398 125.139C37.762 125.205 37.4578 125.179 37.18 125.179H37.1668Z" fill="#212121"/>
<path d="M35.7914 115.117C31.4266 114.931 27.0883 114.322 22.7368 114.084C19.1523 113.885 15.5679 114.111 11.9967 113.965C11.8777 114.005 11.7587 113.925 11.6529 113.899C11.428 113.806 11.4545 113.396 11.7058 113.369C17.6313 113.475 23.57 113.276 29.4691 114.058C31.8499 114.283 34.2571 114.547 36.6644 114.508C36.9025 114.494 36.995 114.812 36.876 114.984C36.6247 115.249 36.1353 115.077 35.7914 115.117Z" fill="#212121"/>
<path d="M36.4654 104.908C28.2781 104.153 20.0512 104.114 11.8639 103.505C11.7184 103.716 11.4935 103.452 11.3745 103.372C11.2687 103.306 11.1364 103.28 11.0703 103.16C10.9777 102.988 11.1232 102.657 11.3481 102.737C14.2182 103.544 17.3265 103.028 20.276 103.385C25.9899 103.359 31.6377 104.206 37.3383 104.259C37.4706 104.259 37.5632 104.378 37.5764 104.511C37.5764 105.04 36.8357 104.868 36.4786 104.895L36.4654 104.908Z" fill="#212121"/>
<path d="M37.352 95.1771C29.8657 94.3695 22.4059 93.072 14.8668 93.072C13.7425 92.9396 12.486 93.0455 11.4278 92.6483C11.1501 92.3041 11.7056 91.9334 11.9701 92.2379C20.0251 92.5821 28.0272 93.3633 36.0293 94.3695C36.4526 94.5416 37.6033 94.3033 37.6298 94.8593C37.6298 95.005 37.5107 95.1771 37.352 95.1771Z" fill="#212121"/>
<path d="M36.8367 85.0768C31.0567 84.481 25.3428 83.3425 19.5495 82.7864C17.1158 82.6805 14.7086 82.5878 12.3014 82.2701C12.0897 82.2171 11.7723 82.323 11.6797 82.0715C11.6003 81.7802 11.8252 81.6081 12.103 81.6743C15.0789 82.0715 18.0549 82.045 21.0441 82.3363C24.3773 82.8129 27.7236 83.1836 31.0435 83.7396C32.3264 83.9117 33.5962 84.1236 34.866 84.2427C35.5802 84.3354 36.2151 84.3884 36.9029 84.4413C37.2203 84.5075 37.1674 85.0768 36.8367 85.0768Z" fill="#212121"/>
<path d="M36.0427 74.2594C33.1197 74.0211 30.2362 73.4518 27.3264 73.1473C22.5913 72.856 16.0044 72.2999 11.3222 71.7571C10.6741 70.7774 12.9888 71.5718 13.4252 71.4659C17.0758 71.6644 20.6602 72.0749 24.2843 72.4323C27.1677 72.4456 29.9849 72.9619 32.8287 73.3194C33.9132 73.3856 34.9714 73.6901 36.056 73.6768C36.3866 73.6768 36.3469 74.2594 36.0295 74.2594H36.0427Z" fill="#212121"/>
<path d="M35.9894 65.0321C27.5508 63.4301 18.9006 63.2845 10.3827 62.4239C9.43039 62.3048 9.62879 61.2721 10.5414 61.8546C17.9219 62.649 25.4081 62.6622 32.7225 63.9465C33.1854 64.0788 37.2989 64.2377 35.9894 65.0321Z" fill="#212121"/>
<path d="M36.1086 57.3268C30.7915 56.4927 25.4876 55.6322 20.1441 54.9172C16.9433 54.2817 13.3456 54.573 10.33 53.4741C10.2241 53.1431 10.5945 53.0107 10.8458 53.1564C13.7424 53.7257 16.692 53.8448 19.615 54.2685C22.8952 54.626 26.1358 55.2879 29.416 55.6719C30.8973 55.8307 32.3523 56.1088 33.8072 56.3868C34.6008 56.5059 35.4076 56.5986 36.2012 56.7045C36.5319 56.7707 36.4393 57.3797 36.0954 57.3268H36.1086Z" fill="#212121"/>
<path d="M65.2199 13.1864C65.2199 14.1926 64.9289 15.1061 64.4528 15.9005C62.4555 19.2633 56.9797 20.7196 53.2895 20.1504C51.8214 21.4346 49.9696 22.2157 48.1311 22.8379C47.3904 23.2484 39.6529 25.5255 42.1262 22.9703C40.4729 23.447 38.4625 23.4072 40.9623 21.8318C40.0497 21.8715 36.9017 20.4416 39.428 20.243C42.113 19.912 44.7716 19.1177 47.0862 17.6878C44.6525 15.7019 42.9198 12.9349 41.9278 9.95602C41.7956 9.41321 41.3591 8.76448 41.584 8.22166C41.7691 7.48026 42.3776 8.42025 42.6289 8.65856C42.5363 8.24814 41.9278 5.36195 42.7876 5.75914C43.3563 6.32843 43.5415 7.25519 44.2822 7.67885C45.1816 0.966475 45.962 9.22786 47.8269 10.4856C48.9776 11.6639 50.5384 11.9287 52.1123 11.8757C53.0514 9.42645 52.9192 6.68589 52.6149 4.11745C52.4298 2.92591 51.8875 1.85351 51.3452 0.807603C51.5833 -0.0926758 53.0514 1.39014 53.4747 1.60197C53.6863 1.09887 53.435 0.397182 53.7921 0C54.3609 0.0529576 54.8767 1.3107 55.2074 1.77408C55.3925 1.48281 55.4587 0.278027 55.9613 0.701688C56.5697 1.77408 57.0326 2.96562 57.3236 4.15717C58.0379 6.16956 58.0114 8.32758 57.7601 10.4062C60.1673 9.29405 64.1486 8.89687 65.1405 12.0346C65.2067 12.4318 65.2331 12.8025 65.2331 13.16L65.2199 13.1864Z" fill="#212121"/>
<path d="M67.4423 12.3262C66.7016 12.5777 65.9477 12.869 65.2202 13.1867C64.8631 13.3324 64.5192 13.4912 64.1753 13.6634C62.6146 14.2724 63.4611 15.1726 64.4663 15.9008C64.9557 16.2583 65.4847 16.5893 65.8022 16.8143C66.9397 17.0129 65.2599 14.9079 65.0879 14.5504C65.8154 13.8619 66.8206 13.5574 67.5481 12.8822C67.9317 12.8425 67.7994 12.2467 67.4555 12.3394L67.4423 12.3262ZM64.9557 15.5036C64.9557 15.5036 64.9689 15.4771 64.9689 15.4639C64.9953 15.4904 65.0086 15.5301 65.035 15.5566C65.0086 15.5433 64.9821 15.5169 64.9557 15.5036Z" fill="#723D9E"/>
<path d="M60.3661 15.8213C59.6122 15.6757 59.9561 14.0737 60.6704 14.259C61.2523 14.4841 61.0407 15.9537 60.3661 15.8213Z" fill="white"/>
<path d="M53.8061 11.9279C53.2902 11.3851 55.1552 11.266 55.4726 11.0409C55.8562 10.935 56.2265 10.8026 56.6101 10.6834C56.8614 10.604 57.0334 11.0409 56.7821 11.1468C55.8165 11.3983 54.7848 11.9676 53.8061 11.9279Z" fill="white"/>
<path d="M53.3299 19.7002C53.0654 19.356 54.0706 18.3366 54.1897 17.8864C54.2955 17.7143 54.3352 17.5025 54.441 17.3304C54.6129 17.145 54.8774 17.4098 54.8113 17.6084C54.679 17.9129 53.7003 20.1636 53.3299 19.7002Z" fill="white"/>
<path d="M46.0687 15.1196C45.7645 14.974 44.8651 13.9281 45.1296 13.6236C45.5661 13.4647 45.8042 14.5239 46.201 14.7092C46.3994 14.8284 46.3332 15.2388 46.0555 15.1196H46.0687Z" fill="white"/>
<path d="M46.7695 14.4174C46.4124 14.0599 45.7907 13.7422 45.6981 13.2259C45.8304 12.6036 46.7033 13.8878 46.9811 14.0202C47.1795 14.1791 47.0472 14.5763 46.7827 14.4174H46.7695Z" fill="white"/>
<path d="M47.5633 13.4648C47.3517 13.2529 46.1084 12.4718 46.8623 12.3262C47.1401 12.5645 47.9601 13.0014 47.8543 13.3853C47.8014 13.5045 47.6691 13.5442 47.5633 13.4648Z" fill="white"/>
<path d="M133.152 93.4163C133.429 93.5355 133.469 93.9194 133.297 94.0518C133.31 94.171 133.257 94.2901 133.112 94.3034C131.141 100.897 127.544 106.894 124.078 112.799C124.554 117.711 125.004 122.715 126.459 127.455C127.372 130.235 128.641 132.764 129.99 135.332C130.916 136.564 131.234 138.073 131.498 139.556C131.511 139.887 131.101 139.926 130.969 139.662C123.787 140.535 116.645 142.111 109.436 142.852C105.468 143.236 101.487 143.011 97.5323 142.587C95.7335 142.587 93.9347 142.442 92.1623 142.177C91.3423 142.071 91.9243 140.985 91.9507 140.469C93.3395 135.226 93.5908 129.838 92.2549 124.555C88.7234 123.642 86.4617 120.2 85.9458 116.718C84.2793 116.029 82.4937 115.632 80.88 114.758C80.4965 114.785 79.9145 114.268 80.2187 113.871C80.4965 112.6 80.5626 111.303 81.1049 110.085C81.7794 108.099 82.5863 106.033 84.147 104.59C86.1707 102.896 88.6308 101.559 91.1968 100.963C93.313 102.71 95.7335 104.273 98.445 104.974C105.204 106.166 112.981 101.519 114.462 94.7006C113.259 94.727 113.298 93.2972 114.529 93.8665C114.634 93.1516 114.529 92.4101 114.661 91.7349C115.521 91.3113 115.15 93.4428 115.203 93.893C118.179 93.6414 119.237 90.3713 120.229 88.0147C119.7 87.8161 119.965 87.1144 120.52 87.3924C120.692 87.2733 120.891 87.3924 120.97 87.5778C124.991 89.6034 128.946 91.7879 133.152 93.4031V93.4163Z" fill="#723D9E"/>
<path d="M99.1604 77.027C99.7291 77.3315 98.9487 78.3112 98.7107 78.6554C98.3932 79.2115 97.6525 79.4366 97.0706 79.1585C95.8934 78.4966 96.9912 77.0005 97.2028 76.0738C97.5732 74.5645 97.9171 72.989 97.7451 71.4267C97.7583 71.1222 97.4145 70.116 98.0096 70.3411C98.3668 71.2546 98.3403 72.4065 98.2874 73.3994C98.1022 74.4718 97.97 75.5707 97.5864 76.5901C97.3483 77.2786 96.3166 79.0261 97.8245 78.6952C98.208 78.5363 98.38 78.1126 98.6181 77.7949C98.8297 77.5698 98.7239 76.9078 99.1604 77.027Z" fill="#212121"/>
<path d="M98.1419 84.0315C96.634 83.7932 96.8986 81.7941 96.5811 80.6819C96.4621 79.8081 97.679 81.1056 98.1816 80.8805C98.7768 80.7481 99.2397 80.298 99.7555 80.0067C100.668 79.4772 100.245 81.5822 100.179 82.0059C100.073 83.2239 99.4513 84.0845 98.1419 84.0183V84.0315ZM98.5784 83.4225C99.8217 83.2107 99.7555 81.5955 99.8217 80.6158C98.9619 81.185 98.208 81.7676 97.1763 81.1586C97.4409 82.0324 97.1499 83.7403 98.5784 83.4225Z" fill="#212121"/>
<path d="M102.558 73.8232C98.9606 73.0156 104.384 68.5142 106.698 71.6917C107.161 72.1286 106.341 72.6052 106.024 72.8303C105.018 73.532 103.788 73.9291 102.558 73.8232ZM103.63 73.2407C104.608 73.0818 105.547 72.6052 106.288 71.93C105.098 70.4207 102.386 71.1754 101.844 72.8832C102.267 73.426 103.021 73.2804 103.63 73.2275V73.2407Z" fill="#212121"/>
<path d="M92.9703 74.6442C92.3751 74.5118 90.1663 74.1278 90.6689 73.2276C91.3699 71.4535 94.2665 71.1622 95.5098 72.5523C95.7876 72.8833 96.4886 73.3599 96.3166 73.8101C95.4304 74.6045 94.121 74.7766 92.9703 74.6442ZM94.002 74.0749C94.6368 74.0352 95.2717 73.9028 95.8008 73.5321C95.3114 72.8966 94.6104 72.3538 93.83 72.1684C92.9438 72.1816 91.4757 72.4464 91.1186 73.3864C91.9254 73.9557 93.0232 74.1411 94.002 74.0749Z" fill="#212121"/>
<path d="M91.4626 72.5509C91.1848 72.3126 91.2642 71.8493 91.1054 71.5315C91.0129 71.2138 91.3964 71.0946 91.5287 71.3991C91.6213 71.6507 91.661 71.9022 91.7139 72.167C91.9519 72.3656 91.7536 72.7098 91.4626 72.5642V72.5509Z" fill="#212121"/>
<path d="M92.0435 72.1815C91.9509 71.9299 91.6864 70.4339 92.2948 71.0164C92.3874 71.2812 92.6387 72.7375 92.0435 72.1815Z" fill="#212121"/>
<path d="M93.1022 71.9557C92.9567 71.8497 92.97 71.6379 92.9303 71.479C92.9303 71.254 92.7451 70.8303 93.0625 70.7773C93.4726 70.8171 93.3403 71.3731 93.4064 71.6511C93.5123 71.8497 93.3138 72.1278 93.1022 71.9557Z" fill="#212121"/>
<path d="M103.71 71.0947C103.326 70.8961 103.604 70.0885 103.63 69.7311C103.657 69.6119 103.762 69.5457 103.868 69.5722C104.278 69.7178 103.948 70.4328 103.961 70.7505C104.093 70.9359 103.921 71.1874 103.71 71.0947Z" fill="#212121"/>
<path d="M104.583 70.9237C104.411 70.7119 104.583 70.3941 104.556 70.1426C104.596 69.9308 104.556 69.4144 104.887 69.5071C105.191 69.6527 104.993 70.2353 104.993 70.5133C104.967 70.7516 104.9 71.162 104.583 70.9237Z" fill="#212121"/>
<path d="M105.469 71.0966C105.469 70.7126 105.615 70.3287 105.655 69.9315C105.681 69.7991 105.813 69.7329 105.932 69.7859C106.342 70.1036 105.932 70.7921 105.866 71.2025C105.787 71.4408 105.483 71.2952 105.469 71.0966Z" fill="#212121"/>
<path d="M93.6843 74.2457C92.9304 73.9942 92.6923 72.4319 93.6182 72.2995C94.9541 71.6905 94.9409 74.5767 93.6843 74.2457Z" fill="#212121"/>
<path d="M104.503 73.2542C103.26 73.2012 103.233 71.2285 104.437 71.1094C105.495 71.1756 105.482 73.1085 104.503 73.2542Z" fill="#212121"/>
<path d="M90.3638 70.5662C89.7289 69.944 91.0119 68.9642 91.5542 68.6995C93.2737 67.8918 94.6492 68.1566 95.919 69.5468C96.0116 69.6527 96.0513 69.8248 95.9719 69.944C95.7074 70.222 95.4164 69.6527 95.2048 69.5203C93.9482 68.289 91.4219 68.7524 90.6416 70.3014C90.6945 70.4735 90.5358 70.6456 90.3638 70.5662Z" fill="#212121"/>
<path d="M101.064 69.0446C100.667 68.7004 101.501 67.6677 101.778 67.4029C103.101 66.1849 105.68 65.695 106.672 67.5485C106.844 67.8133 106.527 68.1046 106.315 67.8398C105.191 65.9598 102.202 67.1249 101.474 68.8063C101.421 68.9916 101.276 69.2299 101.064 69.0578V69.0446Z" fill="#212121"/>
<path d="M91.6344 78.8274C91.145 78.4302 92.018 77.7815 92.1899 77.3711C92.3619 77.1725 92.6529 77.4638 92.5603 77.6624C92.4148 77.861 91.846 78.9995 91.6476 78.8274H91.6344Z" fill="#212121"/>
<path d="M92.7584 78.5756C92.5733 78.4829 92.5071 78.099 92.7717 78.1122C93.023 77.9269 93.1685 77.106 93.5256 77.3179C93.6182 77.3841 93.6578 77.5165 93.6182 77.6224C93.4991 77.8739 93.1023 78.7874 92.7584 78.5756Z" fill="#212121"/>
<path d="M94.1996 78.311C94.0542 78.2051 94.0409 77.8874 94.2393 77.8344C94.3451 77.6755 94.4509 77.4902 94.5568 77.3313C94.7552 77.1062 95.0461 77.4505 94.9271 77.6623C94.8081 77.8874 94.5171 78.5228 94.1996 78.311Z" fill="#212121"/>
<path d="M102.375 77.1731C101.714 76.8819 102.772 76.0875 102.97 75.7433C103.049 75.6638 103.168 75.6903 103.248 75.7698C103.539 76.2199 102.719 76.67 102.547 77.0805C102.507 77.1466 102.441 77.1864 102.362 77.1864L102.375 77.1731Z" fill="#212121"/>
<path d="M103.617 76.5632C103.551 76.1792 104.04 75.888 104.239 75.5835C104.437 75.4246 104.662 75.7291 104.556 75.9144C104.384 76.1792 103.948 77.0663 103.617 76.5632Z" fill="#212121"/>
<path d="M105.257 76.0082C105.442 75.8229 105.64 75.2006 105.971 75.4786C106.249 75.8096 105.759 76.1803 105.521 76.3657C105.336 76.4451 105.151 76.1671 105.257 76.0082Z" fill="#212121"/>
<path d="M147.609 24.9566C147.437 26.4262 147.159 27.8825 146.828 29.3256C146.127 33.1386 145.77 36.9912 145.135 40.8174C145.109 41.0028 145.069 41.1881 145.043 41.3735C145.003 41.6118 144.963 41.8633 144.91 42.1016C144.778 42.4591 144.937 43.558 144.461 43.5315C144.196 43.4388 144.223 43.174 144.276 42.949C144.355 42.4326 144.434 41.9163 144.5 41.4C144.527 41.2146 144.553 41.0293 144.58 40.8439C144.844 39.0434 145.122 37.256 145.36 35.4555C145.717 31.2454 146.67 27.1279 147.357 22.9707C147.635 21.1172 148.468 19.2505 148.349 17.3705C147.635 17.9133 147.238 18.7738 146.974 19.6079C146.828 19.8462 146.511 19.6079 146.55 19.3829C146.789 18.3767 147.278 17.3837 147.119 16.3246C145.889 17.013 145.783 20.1507 145.215 19.0916C145.254 18.0986 146.048 17.1322 145.691 16.1127C144.884 16.96 144.593 18.1251 144.262 19.2107C144.09 19.7403 143.627 19.224 143.826 18.8665C143.998 18.0854 144.672 16.6026 144.17 15.9141C142.702 17.1586 142.08 21.4085 141.498 23.3679C141.114 26.0687 140.36 28.6901 140.109 31.4042C139.752 33.3239 139.368 35.2304 138.972 37.1369C138.866 37.8121 138.853 38.5005 138.839 39.189C138.773 39.467 138.429 39.3743 138.403 39.1095C138.271 37.1501 138.906 35.2834 139.196 33.3769C139.659 31.2983 139.765 29.1535 140.215 27.0749C140.942 23.9107 141.313 20.6803 142.503 17.6485C142.741 16.5099 144.421 13.9812 144.844 16.4437C145.387 15.4508 146.048 15.1463 146.246 16.5231C147.423 15.0006 147.728 16.0862 147.582 17.4234C150.479 14.4313 147.556 24.0564 147.609 24.9699V24.9566Z" fill="#212121"/>
<path d="M154.248 25.3794C154.235 25.4986 154.129 25.631 153.997 25.6177C152.833 25.578 151.669 25.5648 150.505 25.4456C150.056 25.7236 149.897 24.7704 150.77 24.9557C151.537 25.0087 152.304 25.0881 153.084 25.0749C153.375 25.1014 154.301 24.9293 154.248 25.3794Z" fill="#212121"/>
<path d="M153.878 27.6576C152.648 27.5649 151.379 27.4457 150.148 27.459C149.963 27.5119 149.857 27.2869 149.937 27.1412C150.4 26.6646 151.63 27.1412 152.291 27.0485C152.648 27.0221 154.884 27.0221 153.878 27.6576Z" fill="#212121"/>
<path d="M153.944 30.1321C152.714 30.0129 151.418 30.0129 150.201 29.9202C150.096 29.8143 150.148 29.6422 150.228 29.5495C150.955 29.2583 151.841 29.6157 152.622 29.5495C153.111 29.5495 153.601 29.5098 154.077 29.629C154.368 29.7084 154.209 30.185 153.931 30.1453L153.944 30.1321Z" fill="#212121"/>
<path d="M122.386 24.8241C122.333 25.3007 120.257 25.2875 118.802 25.4331C118.59 25.4596 118.392 25.4861 118.207 25.5125C117.916 25.5655 117.691 25.6185 117.545 25.7111C117.479 25.8435 117.268 25.8832 117.188 25.7376C117.122 25.3537 117.559 25.1418 118.18 25.0094C118.365 24.9697 118.564 24.9432 118.775 24.9168C119.86 24.7976 121.169 24.8109 121.593 24.652C121.831 24.6652 122.36 24.4534 122.373 24.8373L122.386 24.8241Z" fill="#212121"/>
<path d="M122.108 26.9289C121.037 27.0216 119.952 27.1672 118.881 27.3658C118.682 27.4055 118.497 27.432 118.299 27.4717C117.981 27.5379 117.664 27.6041 117.347 27.6703C117.36 27.6703 117.373 27.6703 117.399 27.6438C117.32 27.6835 117.228 27.6835 117.161 27.6173C116.95 27.2069 117.558 27.101 117.836 27.048C117.981 27.0216 118.127 27.0083 118.272 26.9818C118.471 26.9554 118.656 26.9156 118.854 26.8759C119.939 26.6773 121.01 26.4655 122.108 26.4258C122.412 26.4258 122.359 26.9024 122.095 26.9289H122.108Z" fill="#212121"/>
<path d="M122.068 29.0083C122.015 29.4849 121.367 29.2598 121.036 29.3657C120.362 29.4187 119.687 29.5246 119.013 29.6173C118.828 29.6438 118.629 29.6702 118.444 29.6967C118.087 29.7497 117.717 29.8026 117.359 29.8424C117.002 29.5378 117.571 29.326 118.404 29.1804C118.59 29.1539 118.775 29.1142 118.973 29.0877C120.177 28.9288 121.605 28.8494 121.843 28.7832C121.976 28.7832 122.068 28.8891 122.055 29.0083H122.068Z" fill="#212121"/>
<path d="M134.872 171.344C134.792 171.463 134.647 171.529 134.422 171.516C132.306 171.78 130.189 171.595 128.073 171.595C127.571 171.595 127.068 171.595 126.552 171.635C125.137 171.635 123.708 171.727 122.293 171.82C120.19 171.966 118.087 172.151 115.984 172.217C115.257 172.191 114.754 172.27 114.397 172.164C114.146 172.085 113.987 171.9 113.894 171.476C113.855 171.277 113.828 171.026 113.815 170.721C113.035 167.027 112.479 163.228 111.474 159.574C111.275 163.598 110.813 167.623 110.469 171.622C110.469 171.648 110.469 171.661 110.469 171.688C110.455 172.058 110.27 172.27 110.006 172.376C109.635 172.522 109.106 172.482 108.577 172.442C108.114 172.403 107.678 172.376 107.374 172.469C107.241 172.482 107.122 172.495 106.99 172.509C106.514 172.548 106.024 172.575 105.548 172.575C104.649 172.575 103.749 172.548 102.85 172.575C99.6492 172.522 96.4749 172.707 93.274 172.641C91.9381 172.76 90.589 172.813 89.2531 172.866C89.1209 172.893 89.0283 172.813 88.9886 172.72C88.9886 172.641 88.9886 172.562 88.9754 172.482C88.2744 162.38 89.3589 151.921 91.7133 142.005C91.7133 141.952 91.7133 141.899 91.7397 141.846C91.8191 141.568 92.0572 141.303 92.2556 141.634C100.774 142.482 109.371 142.323 117.836 140.919C121.169 140.469 124.462 139.807 127.809 139.423C128.827 139.198 129.898 139.344 130.89 139.172C131.076 139.132 131.208 139.251 131.274 139.397C131.38 139.423 131.446 139.49 131.499 139.582C131.565 139.688 131.605 139.834 131.631 139.94C132.544 142.614 133.033 145.381 133.364 148.175C134.766 155.443 134.687 162.87 134.634 170.245C134.66 170.258 134.687 170.284 134.713 170.311C134.792 170.404 134.845 170.509 134.885 170.629C134.964 170.867 134.978 171.132 134.858 171.304L134.872 171.344Z" fill="#212121"/>
<path d="M138.311 24.3992C137.543 24.3595 136.776 24.2933 136.009 24.2536C136.3 21.4866 136.869 18.6666 136.67 15.8996C136.207 14.2579 135.215 15.1317 134.686 16.0717C134.872 14.3505 133.655 13.8872 132.782 15.4362C132.808 13.8872 131.578 13.5959 131.049 15.1846C128.708 10.4185 128.205 26.6102 127.861 27.7621C127.518 32.2767 127.438 36.7913 127.359 41.3192C127.359 41.5178 127.359 41.7296 127.359 41.9282C127.24 48.773 127.134 55.6177 126.195 62.4228C125.547 68.9366 123.351 75.1194 121.738 81.4213C119.595 77.9923 115.455 78.6675 114.185 75.1855C113.299 72.3788 113.021 69.3205 111.408 66.7918C107.863 61.1915 100.086 58.5966 94.0146 60.9664C89.2265 63.5878 86.9648 69.6118 86.3035 74.7884C85.6686 78.4689 86.5416 82.2686 85.6025 85.8962C84.9411 87.988 83.01 89.2325 81.4625 90.6227C78.9362 93.0984 76.7142 96.17 78.3278 99.7711C78.6188 100.83 79.0156 101.982 78.6717 103.081C77.1639 106.311 73.5927 108.125 72.2304 111.501C71.0532 113.805 70.0612 116.387 70.3786 119.008C70.6299 122.649 73.8043 126.025 77.4945 126.21C74.1879 139.82 69.1882 153.007 63.0246 165.571C62.3236 167.57 60.4455 170.615 59.1757 173.528C59.0831 173.753 58.9905 173.965 58.8979 174.19C58.0514 176.268 57.5885 178.214 58.1572 179.591C58.3292 180.386 59.4402 180.902 59.7048 179.909C60.1148 181.312 61.3845 180.783 61.6491 179.618C62.4691 180.929 62.9321 180.73 63.2363 180.042C63.6198 180.942 64.9293 180.598 64.8631 179.658C65.0483 178.175 65.0219 176.679 65.4716 175.236C65.6038 174.891 65.7361 174.574 65.8948 174.243C66.0006 174.018 66.1197 173.793 66.2387 173.567C66.7413 172.627 67.3101 171.727 67.8259 170.814C72.1642 163.678 78.1823 157.72 82.2297 150.372C85.7347 144.375 87.0838 137.477 89.0282 130.884C90.0995 132.009 91.6073 132.459 93.1284 132.592C93.1549 132.592 93.1813 132.592 93.2078 132.592C93.7501 132.711 93.512 131.877 93.5517 131.559C93.4987 129.149 93.3797 126.621 92.4538 124.383C92.0967 123.787 91.3428 123.589 90.7212 123.39C90.4566 123.165 90.3111 123.35 90.2185 123.668C90.0995 124.026 90.0466 124.555 89.9276 124.886C87.2426 135.319 85.0205 146.162 78.5659 155.032C74.1879 161.189 69.0031 166.815 65.5641 173.594C65.4583 173.806 65.3525 174.018 65.2467 174.243C65.207 174.309 65.1806 174.388 65.1409 174.454C64.4002 176.176 64.6647 178.162 64.215 179.909C63.977 180.081 63.6727 179.909 63.6198 179.644C63.5669 179.432 63.6463 179.194 63.5273 179.009C63.5537 178.36 64.215 176.427 63.6992 176.268C63.0246 176.348 63.3156 179.366 62.6411 180.002C61.1597 179.432 62.8791 175.169 61.7284 176.096C61.4242 177.354 61.6094 178.757 60.9348 179.909C59.6254 181.233 60.128 177.01 60.1809 176.454C60.5116 176.176 59.9693 175.792 59.7973 176.123C59.0963 176.586 59.7577 179.538 59.0037 179.883C57.8927 178.784 58.5011 176.454 59.5989 173.965C59.6651 173.819 59.7312 173.66 59.7973 173.514C61.0936 170.681 62.9056 167.729 63.4214 166.167C69.9422 152.49 75.7751 138.205 78.6188 123.284C79.4785 120.61 79.8489 117.538 80.4441 114.586C81.2641 110.574 82.5074 106.761 86.0522 104.431C87.7849 103.187 89.7159 102.273 91.5941 101.254C92.7845 100.605 93.9485 99.93 95.033 99.0959C95.8266 98.6325 96.6731 98.0765 97.0302 97.3086C97.3477 97.2556 97.2022 96.8319 97.2022 96.5539C97.2022 96.2759 97.2022 96.4877 97.2022 96.4612C96.9509 93.906 96.607 91.3508 96.0779 88.8221C96.0515 88.6368 95.9986 88.4249 95.8134 88.319C92.4274 86.7038 91.9248 85.9492 91.0386 82.3481C90.6153 80.4681 90.4963 78.5219 90.0598 76.6286C89.9937 75.0267 89.8879 73.4115 89.663 71.8227C89.6895 70.9092 89.6895 69.9163 89.6366 68.9895C91.938 68.076 93.34 64.925 94.9669 63.1245C98.4984 65.9577 106.09 63.7202 108.961 66.8447C109.199 69.1087 109.503 71.3726 109.529 73.6498C109.688 74.8678 111.937 75.212 111.328 76.8537C111.037 77.3039 110.376 77.3436 110.006 77.6878C109.344 79.5281 110.058 81.7126 109.053 83.4337C107.122 85.6447 107.268 86.1478 107.783 89.0075C108.088 90.53 108.418 92.1452 108.802 93.6413C108.868 93.906 108.842 94.4224 109.212 94.4091C110.336 95.455 112.281 94.568 113.722 94.3827C113.828 94.3694 113.947 94.3562 114.04 94.3562C115.944 94.6739 117.148 93.6413 118.061 92.2644C118.55 91.5362 118.947 90.7153 119.304 89.9475C119.41 89.5106 119.714 88.9942 120.018 88.4911C120.243 88.0939 120.468 87.6968 120.56 87.3393C120.6 87.1672 120.613 86.9951 120.587 86.8494C123.603 77.1847 126.698 67.3875 127.227 57.2065C128.47 43.9935 127.385 30.6482 129.568 17.5015C129.726 16.8528 129.713 15.2773 130.322 14.9198C131.023 15.7804 130.176 17.7796 130.48 18.746C131.115 19.4345 131.036 15.8996 131.472 15.4759C131.578 15.317 132.001 14.3108 132.2 14.7742C132.53 16.0584 131.618 17.5412 132.054 18.7725C132.702 19.3948 132.398 15.4494 134.012 14.9728C134.686 15.6215 133.284 18.2429 134.157 18.3621C134.422 18.5739 134.633 18.1105 134.567 17.8722C134.858 17.0117 135.123 16.0055 135.956 15.5024C136.512 16.2173 136.049 17.6207 136.049 18.521C135.864 20.4274 135.692 22.3207 135.44 24.2139C135.03 24.2801 133.324 23.9094 133.694 24.6905C134.223 24.7435 134.832 24.664 135.387 24.717C135.335 25.2863 135.321 25.8423 135.295 26.4116C134.779 26.4249 134.25 26.4249 133.734 26.4381C132.967 27.1795 134.911 26.875 135.268 26.928C135.242 27.6032 135.229 28.2784 135.215 28.9536C134.753 29.0066 133.403 28.6888 133.39 29.364C133.417 29.5096 133.615 29.5891 133.708 29.4567C134.197 29.417 134.7 29.417 135.202 29.4567C135.03 39.651 136.869 49.7262 136.538 59.9073C136.617 66.8712 135.308 73.7425 134.462 80.6269C133.959 84.7576 133.999 88.9545 132.967 93.0058C132.967 93.1117 132.927 93.2176 132.901 93.3235C132.848 93.5353 132.795 93.7472 132.861 93.9458C132.94 94.1576 133.139 94.1973 133.271 94.1046C133.351 94.0517 133.403 93.9722 133.403 93.8531C134.448 89.6562 134.594 85.3402 135.044 81.0638C136.141 72.9481 137.451 64.8191 137.133 56.5974C137.16 51.6062 136.684 46.6414 136.274 41.6767C136.26 41.4648 136.234 41.253 136.221 41.0412C135.916 37.2017 135.665 33.3623 135.745 29.4964C136.128 29.4699 137.213 29.9068 136.975 29.1787C136.631 28.9933 136.155 29.0595 135.758 28.9933C135.758 28.3049 135.784 27.6164 135.811 26.928C136.472 26.928 137.12 26.9544 137.768 27.0736C138.892 26.3454 136.207 26.4249 135.837 26.4249C135.864 25.8688 135.877 25.326 135.943 24.7699C136.71 24.8097 137.464 24.8759 138.218 24.9156C138.482 24.9156 138.588 24.439 138.297 24.4125L138.311 24.3992ZM89.7159 77.2376C89.9011 78.1776 89.9276 79.0912 90.0995 80.0444C88.5785 79.3162 88.9752 78.4292 89.7159 77.2376Z" fill="#212121"/>
<path d="M133.853 102.817C133.945 106.286 131.062 109.146 131.789 112.707C131.961 114.521 132.464 116.44 131.684 118.175C130.454 120.505 128.231 122.901 125.613 123.378C124.779 123.841 124.74 119.856 124.554 119.274C124.33 117.155 124.105 115.064 123.88 112.945C123.88 112.826 123.933 112.707 124.039 112.654C125.56 108.762 128.165 105.213 129.819 101.361C130.427 99.9177 131.247 98.5541 131.67 97.0448C131.856 96.6608 132.332 96.9786 132.305 97.3096C133.377 99.0969 133.668 100.844 133.866 102.817H133.853Z" fill="#212121"/>
<path d="M125.878 43.4121C125.811 43.2532 125.745 43.0281 125.825 42.8693C125.811 42.5912 125.785 42.3132 125.759 42.0352C125.745 41.8366 125.732 41.6247 125.706 41.4262C125.296 36.5541 124.528 31.7217 124.211 26.8363C124.026 24.5327 124.171 22.1761 124.118 19.8724C123.986 18.6544 124.423 17.3305 123.841 16.2184C123.563 17.1319 123.272 18.0851 123.153 19.0251C123.153 19.184 123.126 19.4091 122.928 19.4223C122.068 19.0383 122.769 15.8212 121.724 15.6491C121.261 16.0198 121.328 17.0524 121.367 17.913C121.394 18.4691 121.42 18.9457 121.288 19.1443C121.261 19.1972 121.222 19.2237 121.169 19.2369C120.759 19.131 120.785 18.1248 120.838 17.3834C120.851 17.0922 120.878 16.8406 120.865 16.695C120.865 16.4699 120.904 16.2581 120.957 16.0462C121.195 15.1327 121.843 14.5634 122.584 15.7947C122.862 16.3905 122.769 17.0657 122.875 17.7012C123.126 17.0127 123.1 16.033 123.682 15.5696C124.198 15.5167 124.476 16.1389 124.581 16.5758C124.886 19.5414 124.634 22.5733 124.7 25.5521C124.965 30.6361 125.864 35.667 126.102 40.7377C126.076 40.8436 126.102 41.1084 126.142 41.4262C126.169 41.6115 126.195 41.8233 126.221 42.0352C126.327 42.909 126.367 43.8225 125.851 43.4518L125.878 43.4121Z" fill="#212121"/>
<path d="M121.314 19.1173C121.248 19.1438 121.155 19.0644 121.023 18.8658C120.983 18.4421 120.944 17.8861 120.864 17.3432C120.772 16.7607 120.613 16.1914 120.282 15.834C119.899 16.774 120.229 17.8728 120.203 18.8658C120.031 20.2824 119.079 17.383 118.894 17.1182C117.412 14.7218 118.682 21.2621 118.722 21.7917C118.722 22.8244 118.761 23.857 118.788 24.8897C118.788 25.0618 118.788 25.2472 118.801 25.4193C118.814 25.8959 118.841 26.3858 118.867 26.8624C118.867 27.0212 118.88 27.1934 118.894 27.3522C118.92 27.9215 118.946 28.5041 118.986 29.0733C118.986 29.2455 119.013 29.4308 119.013 29.6029C119.237 33.6277 119.555 37.6525 119.767 41.6905C119.767 41.9023 119.793 42.1009 119.793 42.2995C119.859 43.7426 119.912 45.1989 119.952 46.6553C119.991 46.9995 119.515 47.026 119.502 46.6553C119.462 45.2122 119.396 43.7558 119.317 42.3127C119.317 42.1009 119.29 41.9023 119.277 41.6905C119.039 37.6789 118.695 33.6807 118.444 29.6691C118.444 29.497 118.417 29.3117 118.417 29.1395C118.378 28.5703 118.351 28.001 118.312 27.4449C118.312 27.286 118.298 27.1139 118.285 26.955C118.259 26.4652 118.232 25.9753 118.219 25.4855C118.219 25.3134 118.206 25.1412 118.193 24.9691C118.153 23.9894 118.126 23.0097 118.113 22.03C118.14 20.8252 116.764 16.0855 118.378 15.8737C119.118 16.0987 119.423 16.9196 119.661 17.5816C119.515 16.774 119.74 14.1526 120.851 15.7678C120.891 15.7942 120.944 15.8737 120.983 15.9928C121.129 16.3768 121.301 17.1711 121.38 17.8596C121.46 18.4951 121.46 19.0379 121.301 19.0908L121.314 19.1173Z" fill="#212121"/>
<path d="M119.925 51.6994C119.925 50.68 119.582 49.6208 119.727 48.6146C119.873 48.3896 120.15 48.5882 120.137 48.8132C120.058 49.3031 120.243 49.8194 120.269 50.3093C120.23 50.7329 120.626 51.7656 120.177 51.951C120.031 51.951 119.939 51.8186 119.925 51.6862V51.6994Z" fill="#212121"/>
<path d="M125.878 47.807C125.786 47.5289 125.653 46.258 126.196 46.8405C126.222 47.145 126.249 47.4495 126.301 47.754C126.328 48.0718 125.944 48.1115 125.878 47.807Z" fill="#212121"/>
<path d="M137.809 44.2324C137.359 44.2324 137.69 42.1273 137.862 41.8625C138.126 41.5845 138.55 42.1141 138.192 42.273C138.007 42.6701 138.245 44.2986 137.796 44.2324H137.809Z" fill="#212121"/>
<path d="M45.7643 207.223C45.3543 207.038 44.9443 206.839 44.5475 206.641C44.4813 206.614 44.4152 206.574 44.3491 206.535C43.529 206.111 42.7222 205.648 41.9286 205.158C41.8889 205.131 41.836 205.105 41.7963 205.078C38.3706 202.761 37.3786 198.525 36.7173 194.672C36.7438 194.302 36.0295 192.607 36.7967 192.964C36.9289 192.766 37.167 192.858 37.3125 192.991C38.7674 193.573 40.024 194.262 41.1615 195.083C41.254 195.149 41.3466 195.215 41.426 195.281C43.1984 196.618 44.6268 198.287 45.9363 200.405C47.4044 202.589 47.3647 204.906 47.6425 207.435C47.8541 208.905 46.3198 207.422 45.7511 207.223H45.7643Z" fill="#212121"/>
<path d="M162.093 185.524C161.55 187.43 160.598 189.336 158.72 190.224C156.709 191.746 154.117 191.587 151.776 191.137C151.194 190.978 148.919 190.899 149.739 189.906C152.834 186.927 156.405 184.729 160.836 184.981C160.982 184.676 162.172 185.179 162.093 185.524Z" fill="#212121"/>
<path d="M184.379 18.4415C183.427 21.3145 181.443 23.777 179.049 25.5908C177.501 26.65 175.663 26.9809 173.838 27.2192C173.017 27.1531 168.772 28.4505 168.732 27.7356C169.83 24.8097 171.682 22.1353 173.917 19.9243C175.544 18.137 181.734 17.3427 184.115 17.6604C184.207 17.5677 184.326 17.4486 184.472 17.4883C185.649 16.972 186.707 15.7142 187.95 15.5156C188.995 16.0055 184.842 18.1635 184.392 18.4283L184.379 18.4415Z" fill="#212121"/>
<path d="M101.117 63.9455C100.628 63.9455 97.2419 62.9923 97.6519 62.3303C97.8106 62.1052 98.0222 62.3832 98.1942 62.4627C98.8688 62.8201 99.583 63.0849 100.284 63.2835C100.601 63.4424 101.263 63.2968 101.329 63.7469C101.329 63.866 101.236 63.972 101.117 63.9587V63.9455Z" fill="white"/>
<path d="M101.726 62.9275C101.409 62.9937 98.327 61.908 99.4513 61.6035C100.192 61.9213 100.906 62.3582 101.726 62.4508C101.978 62.4906 102.017 62.9539 101.726 62.9275Z" fill="white"/>
<path d="M102.281 61.9871C101.99 61.9341 100.217 61.3384 100.892 60.9809C101.249 60.9676 101.54 61.2722 101.857 61.3913C102.082 61.5105 102.492 61.4575 102.492 61.7885C102.492 61.8944 102.4 62.0136 102.281 61.9871Z" fill="white"/>
<path d="M87.5865 74.9873C87.031 74.5372 88.3801 71.4524 88.6446 70.7639C88.7637 70.5256 88.9621 70.0755 89.2927 70.2344C89.3985 70.3006 89.4515 70.4727 89.3721 70.5786C88.552 71.6377 88.2611 73.147 87.9172 74.4313C87.851 74.6166 87.8775 75.0535 87.5865 75.0006V74.9873Z" fill="white"/>
<path d="M73.817 118.108C73.6979 118.069 73.6186 117.923 73.6318 117.804C73.9625 115.646 74.8619 113.845 76.3565 112.283C78.724 109.661 81.4223 106.722 81.0387 102.909C80.298 99.1891 80.6419 95.0982 83.8295 92.5827C90.5619 87.2737 87.3875 84.03 87.4139 76.9867C87.4933 76.6425 87.242 75.9672 87.652 75.8613C87.9959 75.9275 87.8107 76.5101 87.8504 76.7616C88.062 85.7379 91.1703 87.2737 83.1417 94.0125C81.7926 95.6145 81.0123 97.7328 81.1445 99.8246C82.7846 108.338 78.7902 109.132 74.8486 115.235C74.4519 115.659 74.2138 118.227 73.817 118.095V118.108Z" fill="white"/>
<path d="M75.9739 123.445C74.5983 122.677 73.937 121.115 73.765 119.592C73.765 119.116 74.4263 119.341 74.2147 119.725C74.3999 120.665 74.6909 121.631 75.3522 122.359C75.5771 122.677 76.5161 122.968 76.2913 123.405C76.2252 123.524 76.0664 123.524 75.9739 123.445Z" fill="white"/>
<path d="M84.0682 98.4609C83.3408 97.415 85.4835 94.3567 86.2903 93.5093C89.5573 90.7688 91.2503 86.2806 89.6763 82.1764C89.6234 81.9911 89.5176 81.7792 89.6102 81.5806C89.7425 81.3821 90.007 81.5806 89.9938 81.766C91.9248 86.6381 90.0335 90.9409 86.33 94.2905C85.6422 95.0848 85.047 96.0116 84.6502 96.9781C84.4386 97.3223 84.5179 98.4741 84.0682 98.4609Z" fill="white"/>
<path d="M84.0153 103.373C83.9624 102.287 83.7243 101.162 83.9624 100.09C84.1078 99.6925 84.584 100.063 84.3724 100.341C84.2137 101.361 84.4517 102.393 84.4782 103.413C84.465 103.757 84.0417 103.678 84.0153 103.373Z" fill="white"/>
<path d="M89.0941 95.0862C88.5386 94.5037 90.7738 92.0941 91.0516 91.3263C91.8055 90.148 92.4139 88.7446 92.1759 87.328C92.123 87.1691 92.123 86.8778 92.361 86.8911C93.4589 88.877 91.5807 91.5513 90.43 93.2327C90.0596 93.524 89.4644 95.3643 89.0941 95.073V95.0862Z" fill="white"/>
<path d="M87.1771 101.903C87.0845 100.367 87.2829 98.7653 87.7723 97.2957C87.9839 96.9118 88.0369 96.2233 88.4866 96.0645C88.6982 96.0645 88.8172 96.3954 88.6321 96.5146C88.1294 97.5737 87.8252 98.6991 87.693 99.8642C87.6268 100.539 87.5475 101.254 87.6004 101.93C87.5872 102.247 87.2036 102.168 87.1771 101.903Z" fill="white"/>
<path d="M77.2033 121.749C76.1055 119.988 75.8675 117.658 76.5023 115.685C77.4679 113.342 79.809 111.846 80.5629 109.383C80.7481 108.748 81.211 109.344 80.92 109.767C79.1212 114.322 74.7829 115.328 77.415 121.233C77.6795 121.458 77.6134 122.053 77.2033 121.736V121.749Z" fill="white"/>
<path d="M76.1455 110.297C75.8677 109.847 76.582 109.436 76.8068 109.092C77.5475 107.967 78.5263 107.014 79.2008 105.849C80.96 102.367 77.7988 98.8052 78.8702 95.2835C79.0289 94.595 79.7167 95.1776 79.2934 95.4291C78.3808 98.4212 80.6954 101.228 80.1928 104.273C80.1267 106.007 78.9098 107.278 77.8782 108.549C77.6136 108.854 76.4762 110.734 76.1455 110.31V110.297Z" fill="white"/>
<path d="M89.4118 100.023C88.433 97.8652 91.5148 93.2579 92.5861 91.2191C93.1284 90.3453 93.5252 89.4185 93.4855 88.3594C93.5384 87.9357 93.9882 88.1078 93.8956 88.4785C94.0014 90.716 92.2687 92.4371 91.4222 94.3833C90.7873 95.6145 90.126 96.8591 89.8614 98.2227C89.6763 98.6199 89.8615 99.9968 89.425 100.023H89.4118Z" fill="white"/>
<path d="M93.5786 97.3093C92.8776 96.846 94.0018 92.6756 94.2796 91.8282C94.3457 91.6429 94.4251 91.4443 94.5838 91.3251C94.7954 91.1795 95.0071 91.5105 94.8616 91.6826C94.1473 93.3772 93.9093 95.2572 93.8034 97.0843C93.8034 97.2167 93.7109 97.3358 93.5654 97.3093H93.5786Z" fill="white"/>
<path d="M119.396 81.8066C118.576 80.0192 116.751 79.2646 115.084 78.51C109.145 75.5973 112.584 67.0844 107.823 64.9925C106.659 64.079 109.436 64.3306 110.561 67.2168C111.619 70.1294 111.354 73.6114 113.179 76.2195C114.753 78.3246 117.716 78.4967 119.264 80.6283C119.449 80.9063 120.15 81.7139 119.766 81.9522C119.634 82.0316 119.462 81.939 119.396 81.8066Z" fill="white"/>
<path d="M114.092 90.2798C111.645 86.0035 114.026 83.0511 111.381 78.9469C111.354 78.6689 111.698 78.6821 111.778 78.9072C113.722 81.33 113.166 84.4413 113.471 87.3142C113.735 88.2675 114.092 89.1942 114.515 90.0813C114.634 90.3858 114.277 90.5446 114.092 90.2798Z" fill="white"/>
<path d="M116.698 90.5051C114.489 87.6057 114.449 83.859 113.431 80.4962C113.471 79.9269 111.685 78.1793 112.36 78.166C115.005 80.5491 114.37 84.746 115.746 87.8175C116.09 88.7046 116.592 89.4989 117.108 90.2933C117.227 90.5846 116.87 90.7434 116.698 90.4919V90.5051Z" fill="white"/>
<path d="M118.947 85.7507C118.193 84.9696 117.466 84.1222 116.95 83.1558C116.659 82.507 116.209 81.9245 116.011 81.2361C115.958 80.8654 116.407 80.958 116.421 81.2625C116.976 82.3217 117.532 83.3941 118.286 84.3208C118.524 84.771 119.516 85.2608 119.304 85.7904C119.198 85.8963 119.026 85.8566 118.934 85.7507H118.947Z" fill="white"/>
<path d="M111.58 91.6971C111.236 91.088 109.887 86.2954 110.865 86.3086C111.064 86.4145 111.011 86.5866 110.984 86.772C111.024 88.1621 111.368 89.5258 111.752 90.863C111.791 91.1807 112.254 91.6044 111.937 91.8559C111.805 91.9221 111.646 91.8294 111.58 91.7103V91.6971Z" fill="white"/>
<path d="M129.621 117.434C129.158 117.196 129.674 116.242 129.515 115.779C128.708 110.642 128.126 109.252 130.877 104.446C131.42 102.99 132.054 101.361 131.433 99.8389C130.983 98.9121 132.081 98.8989 131.803 99.4947C133.721 104.764 127.531 107.054 129.819 114.045C129.912 114.495 130.335 117.619 129.634 117.434H129.621Z" fill="white"/>
<path d="M126.791 119.036C126.42 118.771 126.857 118.348 126.923 118.03C127.716 116.004 126.962 113.886 126.817 111.834C126.804 111.503 127.174 107.836 127.703 109.106C127.531 109.941 127.359 110.761 127.32 111.622C127.373 113.82 128.298 116.163 127.399 118.348C127.28 118.599 127.187 119.288 126.791 119.049V119.036Z" fill="white"/>
<path d="M125.574 114.944C125.23 114.811 125.441 114.335 125.428 114.083C125.468 113.805 125.388 113.474 125.534 113.222C125.666 113.09 125.878 113.222 125.904 113.368C125.851 113.712 126.076 114.983 125.574 114.944Z" fill="white"/>
<path d="M86.3434 115.633C85.5365 115.157 87.4544 112.721 87.6528 111.992C87.9702 111.595 87.7718 110.192 88.2612 110.205C88.7109 110.364 88.4199 111 88.367 111.331C88.1157 112.681 87.1766 113.7 86.7269 114.958C86.6211 115.143 86.6079 115.647 86.3434 115.633Z" fill="white"/>
<path d="M119.701 115.223C119.463 114.706 120.534 114.124 120.786 113.687C121.077 113.409 121.288 113.012 121.645 112.84C121.897 112.734 122.161 113.012 121.989 113.25C121.407 113.449 120.204 115.633 119.688 115.236L119.701 115.223Z" fill="white"/>
<path d="M121.064 116.837C120.786 116.572 121.196 116.241 121.328 116.03C121.513 115.831 121.818 115.262 122.095 115.632C122.254 115.897 121.923 116.016 121.818 116.202C121.593 116.387 121.434 117.102 121.064 116.837Z" fill="white"/>
<path d="M114.264 120.955C112.584 120.836 110.865 120.386 109.595 119.234C107.796 117.698 109.542 117.447 109.251 118.188C111.156 120.36 115.534 121.445 117.756 119.247C118.007 119.022 118.298 119.472 118.1 119.684C117.134 120.73 115.64 121.048 114.264 120.955Z" fill="white"/>
<path d="M115.52 99.3744C115.097 99.2023 116.314 96.475 116.235 95.7071C116.248 95.535 116.473 95.4952 116.565 95.6276C116.777 95.9586 116.565 96.369 116.526 96.7265C116.341 97.2428 116.102 99.4273 115.507 99.3611L115.52 99.3744Z" fill="white"/>
<path d="M118.378 97.2437C118.219 96.8333 117.333 94.9798 118.047 94.8606C118.298 94.8342 118.444 95.2313 118.206 95.324C118.298 95.933 118.563 96.4626 118.788 97.0187C118.933 97.3496 118.536 97.6012 118.365 97.2437H118.378Z" fill="white"/>
<path d="M97.1236 139.994C96.4226 139.663 95.4968 139.491 94.9942 138.895C94.8884 138.617 95.2719 138.432 95.4174 138.696C95.4571 138.723 95.4968 138.736 95.5497 138.763C95.5497 138.763 95.5497 138.763 95.5365 138.763C96.1052 139.041 96.6872 139.266 97.2559 139.53C97.4808 139.636 97.4279 140.1 97.1369 140.007L97.1236 139.994Z" fill="white"/>
<path d="M97.8898 138.723C97.5591 138.538 95.4297 137.611 96.3423 137.24C96.8449 137.637 97.4533 137.902 98.0221 138.22C98.2734 138.339 98.2072 138.842 97.8898 138.736V138.723Z" fill="white"/>
<path d="M169.221 27.6302C168.56 27.339 169.671 26.8624 169.896 26.624C170.597 26.0945 171.272 25.5119 171.959 24.9691C175.689 22.0432 179.776 19.5807 184.207 17.8993C184.511 17.6477 184.868 18.0449 184.511 18.2435C178.903 20.3089 174.009 23.7908 169.393 27.5111C169.38 27.5905 169.301 27.6435 169.221 27.6302Z" fill="white"/>
<path d="M172.991 26.7164C172.608 26.6767 172.899 25.7102 172.872 25.4189C172.951 25.1542 172.766 23.6846 173.282 24.3201C173.295 24.5451 173.242 26.862 172.991 26.7164Z" fill="white"/>
<path d="M176.615 26.1615C176.231 25.9893 176.681 23.8843 176.615 23.3679C176.655 23.1296 176.562 21.9116 176.853 21.9646C177.276 22.1234 176.787 24.7978 176.853 25.3936C176.8 25.5789 176.919 26.2012 176.628 26.1615H176.615Z" fill="white"/>
<path d="M180.49 24.1619C180.199 24.056 180.384 23.6059 180.371 23.3808C180.464 22.4541 180.543 21.5273 180.464 20.6138C180.239 19.3428 181.125 19.9253 180.794 20.2431C180.86 20.7065 180.94 24.1884 180.503 24.1752L180.49 24.1619Z" fill="white"/>
<path d="M180.398 20.164C180.067 19.9522 177.157 18.9592 178.056 18.5488C178.903 18.9857 179.736 19.4094 180.596 19.8066C180.927 19.9654 180.689 20.3891 180.384 20.1508L180.398 20.164Z" fill="white"/>
<path d="M176.536 22.3074C175.914 22.175 175.398 21.7779 174.843 21.4998C174.525 21.3145 174.168 21.3277 173.89 21.1027C173.745 20.9703 173.838 20.6525 174.062 20.7452C174.327 20.8379 177.396 22.0691 176.536 22.3207V22.3074Z" fill="white"/>
<path d="M172.766 24.6523C172.435 24.5729 171.417 24.6523 171.443 24.1493C171.47 24.0433 171.562 23.9639 171.668 24.0169C171.959 24.2154 172.991 24.0963 172.938 24.5332C172.925 24.6259 172.845 24.6788 172.766 24.6523Z" fill="white"/>
<path d="M149.951 190.449C149.58 190.171 150.149 189.707 150.453 189.932C154.17 188.661 158.349 187.907 161.365 185.232C162.794 185.431 158.468 187.655 158.085 187.721C156.101 188.834 153.839 189.257 151.696 189.985C151.128 190.118 150.546 190.488 149.964 190.436L149.951 190.449Z" fill="white"/>
<path d="M154.077 191.097C153.733 190.859 154.368 189.469 154.328 188.979C154.976 188.304 154.394 191.336 154.077 191.097Z" fill="white"/>
<path d="M156.709 190.595C156.418 190.198 156.921 189.523 156.921 189.06C156.987 188.821 157.053 187.842 157.384 188.437C157.318 188.808 157.132 190.688 156.709 190.609V190.595Z" fill="white"/>
<path d="M159.804 188.993C159.421 188.874 159.91 187.139 159.91 186.742C159.923 186.332 160.466 186.504 160.254 186.835C160.082 187.245 160.188 188.993 159.804 189.006V188.993Z" fill="white"/>
<path d="M154.368 188.913C153.905 188.569 153.125 188.185 153.032 187.589C153.112 187.351 153.495 187.496 153.456 187.721C153.76 188.039 154.117 188.331 154.501 188.556C154.699 188.661 154.62 189.032 154.381 188.926L154.368 188.913Z" fill="white"/>
<path d="M157.357 188.053C157.013 187.814 155.479 186.385 155.677 186.001C155.836 185.815 156.273 186.001 156.114 186.265C156.497 186.663 156.815 187.113 157.225 187.483C157.37 187.629 157.701 187.748 157.595 188C157.556 188.093 157.437 188.106 157.37 188.053H157.357Z" fill="white"/>
<path d="M159.817 186.953C159.327 186.556 158.917 185.974 158.481 185.497C158.229 185.153 158.785 184.968 158.811 185.365C158.983 185.682 160.372 186.728 159.817 186.94V186.953Z" fill="white"/>
<path d="M47.0464 207.963C44.2291 204.349 41.7161 200.51 39.1501 196.71C39.0575 196.353 36.0948 192.566 37.1132 193.029C37.219 193.029 37.3116 193.149 37.2984 193.255C40.2215 197.69 43.171 202.098 46.266 206.414C46.4115 206.666 47.9855 208.281 47.0464 207.963Z" fill="white"/>
<path d="M37.7227 198.195C37.3656 197.903 38.2914 196.129 38.4105 195.639C38.4766 195.269 38.966 195.401 38.8205 195.732C38.4898 196.129 38.1327 198.314 37.7227 198.195Z" fill="white"/>
<path d="M39.5609 202.152C39.217 201.9 39.9312 200.616 39.9841 200.179C40.1032 199.888 40.5132 198.219 40.8571 199.054C40.4735 199.517 39.9048 202.403 39.5609 202.138V202.152Z" fill="white"/>
<path d="M43.1589 202.337C43.1457 202.39 43.1193 202.456 43.0796 202.509C42.868 202.84 42.2728 205.051 41.9289 205.157C41.9024 205.157 41.876 205.157 41.8627 205.144C41.8363 205.144 41.8098 205.104 41.7966 205.078C41.6247 204.654 42.6563 202.681 42.8283 202.125C42.8283 202.099 42.8415 202.086 42.8415 202.072C42.9076 201.794 43.1193 201.887 43.1722 202.112C43.1854 202.178 43.1854 202.258 43.1722 202.337H43.1589Z" fill="white"/>
<path d="M45.1687 204.854C45.1687 204.88 45.1687 204.907 45.1555 204.933C45.1555 204.947 45.129 204.973 45.1158 204.986C45.0761 205.039 45.0497 205.119 45.0232 205.225C44.9174 205.688 44.9174 206.549 44.5603 206.628C44.5206 206.628 44.4809 206.628 44.4412 206.628C44.4015 206.601 44.3883 206.562 44.3751 206.535C44.2825 206.323 44.5603 206.032 44.5603 205.807C44.6396 205.503 44.6264 205.158 44.7454 204.854C44.7454 204.827 44.7587 204.814 44.7719 204.788C44.838 204.655 44.9571 204.642 45.0629 204.695C45.129 204.735 45.1819 204.801 45.1819 204.867L45.1687 204.854Z" fill="white"/>
<path d="M39.0192 195.837C38.9927 195.837 38.953 195.864 38.9398 195.877C38.9133 195.97 38.7943 195.97 38.7149 195.93C38.4636 195.731 38.543 195.599 38.7943 195.493C39.3101 195.281 40.4741 195.228 40.6989 195.136C40.8312 195.136 41.0164 195.083 41.1619 195.096C41.2809 195.096 41.3867 195.149 41.4264 195.281C41.5454 195.586 39.5615 195.665 39.0192 195.837Z" fill="white"/>
<path d="M44.5333 199.279C44.0043 199.24 43.4884 199.081 42.9461 199.081C42.5758 199.015 40.3934 199.518 40.7373 198.816C40.7373 198.604 40.9754 198.591 41.0547 198.763C42.2848 198.697 43.5017 198.617 44.7053 198.922C44.9566 199.068 44.7979 199.372 44.5333 199.279Z" fill="white"/>
<path d="M43.317 202.458C42.6954 202.074 43.5683 202.007 43.8725 202.007C44.4942 202.14 46.3856 201.451 46.5707 202.166C46.5575 202.246 46.4782 202.299 46.3988 202.285C45.3804 202.166 44.3487 202.484 43.3038 202.458H43.317Z" fill="white"/>
<path d="M46.5574 205.237C46.1739 205.131 45.2877 205.383 45.1422 204.972C45.129 204.681 45.4993 204.813 45.6713 204.8C46.0813 204.826 46.5045 204.813 46.9146 204.866C47.06 204.893 47.1526 205.078 47.0733 205.21C46.941 205.343 46.7294 205.237 46.5574 205.25V205.237Z" fill="white"/>
</svg>
