<svg width="25" height="25" viewBox="0 0 25 25" fill="none" xmlns="http://www.w3.org/2000/svg">
<path d="M20.8897 13.6568C20.8878 12.854 20.6986 12.0651 20.3379 11.3489L21.1663 10.5205C21.7874 9.89938 21.7874 8.88873 21.1663 8.2676C20.8565 7.95781 20.4499 7.80261 20.0429 7.80186C20.0423 7.37718 19.8767 6.97805 19.5764 6.67768C19.2664 6.36775 18.8594 6.2125 18.4522 6.21194C18.4517 5.80474 18.2964 5.39773 17.9864 5.08776C17.6863 4.78762 17.2874 4.62202 16.863 4.62127C16.8622 4.19691 16.6967 3.79802 16.3965 3.49783C16.0956 3.19695 15.6956 3.03125 15.2701 3.03125C14.8446 3.03125 14.4445 3.19695 14.1437 3.49783L12.5005 5.14105L11.5862 4.22668C11.2853 3.92579 10.8853 3.7601 10.4597 3.7601C10.0342 3.7601 9.63419 3.92579 9.33335 4.22668C9.03298 4.52705 8.86742 4.92618 8.86681 5.35086C8.4599 5.35161 8.05317 5.50681 7.74338 5.8166C7.4432 6.11678 7.27764 6.51564 7.27685 6.94003C6.85249 6.94083 6.4536 7.10639 6.15341 7.40657C5.64052 7.91947 5.55165 8.69781 5.88581 9.30328C5.65566 9.37852 5.43924 9.507 5.25662 9.68962C4.63554 10.3107 4.63554 11.3214 5.25662 11.9425L5.92012 12.606L0.648757 17.8773C0.465714 18.0604 0.465714 18.3572 0.648757 18.5403C0.740302 18.6318 0.860253 18.6776 0.980204 18.6776C1.10015 18.6776 1.22015 18.6318 1.31165 18.5403L4.88505 14.9669L8.23247 18.3143L2.87082 23.676C2.68778 23.859 2.68778 24.1558 2.87082 24.3389C2.96237 24.4304 3.08232 24.4762 3.20227 24.4762C3.32222 24.4762 3.44222 24.4304 3.53372 24.3389L10.7806 17.092C10.9141 16.9585 11.0661 16.8503 11.2305 16.7689L12.3647 17.516C13.1148 18.01 14.0294 18.203 14.9111 18.0603L21.2137 24.3628C21.3052 24.4543 21.4252 24.5001 21.5451 24.5001C21.6651 24.5001 21.7851 24.4543 21.8766 24.3628C22.0596 24.1798 22.0596 23.883 21.8766 23.6999L18.2197 20.043L18.6618 19.601C18.8449 19.4179 18.8449 19.1211 18.6618 18.938C18.4788 18.755 18.182 18.755 17.9989 18.938L17.5568 19.3801L16.5218 18.3451L20.3869 14.4799L21.422 15.5149L20.9809 15.956C20.7979 16.1391 20.7979 16.4359 20.9809 16.619C21.0725 16.7105 21.1924 16.7563 21.3124 16.7563C21.4323 16.7563 21.5523 16.7105 21.6438 16.619L22.0849 16.1779L23.6995 17.7925C23.791 17.884 23.911 17.9298 24.0309 17.9298C24.1509 17.9298 24.2709 17.884 24.3624 17.7925C24.5454 17.6094 24.5454 17.3126 24.3624 17.1295L20.8897 13.6568ZM14.8066 4.16073C14.9304 4.03693 15.095 3.96873 15.2701 3.96873C15.4452 3.96873 15.6098 4.03693 15.7336 4.16073C15.8574 4.28452 15.9256 4.44914 15.9256 4.62422C15.9256 4.79934 15.8574 4.96396 15.7336 5.08776L14.7035 6.11781C14.5205 6.30086 14.5205 6.59766 14.7035 6.78075C14.8866 6.96385 15.1834 6.9638 15.3665 6.78075L16.3965 5.7507C16.5203 5.62686 16.6849 5.5587 16.8601 5.5587C17.0351 5.5587 17.1998 5.6269 17.3236 5.7507C17.5792 6.0063 17.5792 6.42212 17.3236 6.67773L15.7506 8.25063C15.5676 8.43368 15.5676 8.73048 15.7506 8.91357C15.8422 9.00512 15.9621 9.05087 16.0821 9.05087C16.202 9.05087 16.322 9.00512 16.4135 8.91357L17.9864 7.34067C18.1102 7.21682 18.2749 7.14867 18.4499 7.14867C18.6251 7.14867 18.7897 7.21687 18.9135 7.34067C19.0373 7.46446 19.1055 7.62908 19.1055 7.80416C19.1055 7.97923 19.0373 8.14385 18.9135 8.26765L17.3406 9.84055C17.1575 10.0236 17.1575 10.3204 17.3406 10.5035C17.4321 10.595 17.5521 10.6408 17.672 10.6408C17.792 10.6408 17.912 10.595 18.0035 10.5035L19.5763 8.93059C19.8319 8.67498 20.2478 8.67503 20.5034 8.93059C20.759 9.18619 20.759 9.60206 20.5034 9.85762L16.6289 13.732C15.3885 14.9726 13.7391 15.6558 11.9847 15.6558C11.5097 15.6558 11.054 15.7809 10.6545 16.0146L7.94138 13.3015C8.15016 13.2227 8.34178 13.1 8.50434 12.9374C8.80471 12.6371 8.97027 12.2379 8.97087 11.8132C9.37779 11.8125 9.78452 11.6573 10.0943 11.3475C10.4041 11.0377 10.5593 10.631 10.56 10.224C10.9847 10.2235 11.3839 10.0579 11.6842 9.75749C11.994 9.4477 12.1492 9.04102 12.15 8.63406C12.5746 8.6335 12.9738 8.46789 13.2741 8.16757C13.575 7.86669 13.7407 7.46666 13.7407 7.04114C13.7407 6.61562 13.575 6.21559 13.2741 5.91471L13.1632 5.80385L14.8066 4.16073ZM9.99625 4.88957C10.12 4.76578 10.2847 4.69758 10.4597 4.69758C10.6348 4.69758 10.7994 4.76578 10.9232 4.88957L12.6114 6.57765C12.7351 6.70144 12.8033 6.86607 12.8033 7.04114C12.8033 7.21622 12.7351 7.38084 12.6114 7.50468C12.4876 7.62847 12.3229 7.69667 12.1479 7.69667C11.9728 7.69667 11.8083 7.62852 11.6845 7.50482L9.99625 5.81655C9.87245 5.69276 9.80425 5.52814 9.80425 5.35306C9.80425 5.17799 9.8724 5.01341 9.99625 4.88957ZM8.40628 6.4795C8.5341 6.35167 8.70191 6.28783 8.86981 6.28783C9.03767 6.28783 9.20557 6.35172 9.33331 6.4795L11.0214 8.16757C11.277 8.42318 11.2769 8.83904 11.0214 9.09465C10.8976 9.21844 10.733 9.28664 10.5579 9.28664C10.3829 9.28664 10.2183 9.21849 10.0945 9.09479L8.40632 7.40652C8.28248 7.28273 8.21433 7.11811 8.21433 6.94299C8.21428 6.76791 8.28248 6.60334 8.40628 6.4795ZM6.81635 8.06946C6.94015 7.94562 7.10477 7.87747 7.27985 7.87747C7.45497 7.87747 7.61959 7.94567 7.74338 8.06946L9.43146 9.75754C9.68706 10.0131 9.68706 10.429 9.43146 10.6846C9.17585 10.9401 8.75999 10.9402 8.50438 10.6846L6.81631 8.99649C6.56075 8.74094 6.56075 8.32502 6.81635 8.06946ZM5.91951 10.3525C6.04734 10.2247 6.21519 10.1608 6.38305 10.1608C6.55067 10.1608 6.71839 10.2246 6.84607 10.3521L7.84149 11.3475C7.96528 11.4713 8.03349 11.6359 8.03349 11.811C8.03349 11.9861 7.96528 12.1507 7.84149 12.2745C7.7177 12.3984 7.55307 12.4665 7.37795 12.4665C7.20302 12.4665 7.03849 12.3984 6.9147 12.2748L5.91951 11.2796C5.66396 11.0239 5.66396 10.6081 5.91951 10.3525ZM5.54799 14.304L6.58306 13.2689L9.93053 16.6163L8.89545 17.6514L5.54799 14.304ZM15.3968 17.22C15.2813 17.1046 15.1142 17.0573 14.9556 17.0958C14.2461 17.2666 13.4898 17.1344 12.8804 16.733L12.6265 16.5658C14.3892 16.4175 16.0267 15.6602 17.2919 14.3949L19.6312 12.0557C19.8324 12.542 19.941 13.0618 19.951 13.5902L15.859 17.6822L15.3968 17.22Z" fill="white"/>
<path d="M19.4894 17.4479C19.4022 17.5351 19.3521 17.6555 19.3521 17.7793C19.3521 17.9026 19.4022 18.0235 19.4894 18.1107C19.5766 18.1978 19.6975 18.248 19.8208 18.248C19.9446 18.248 20.065 18.1979 20.1522 18.1107C20.2394 18.0235 20.2896 17.9026 20.2896 17.7793C20.2896 17.6555 20.2394 17.5351 20.1522 17.4479C20.065 17.3607 19.9441 17.3105 19.8208 17.3105C19.6975 17.3105 19.5766 17.3607 19.4894 17.4479Z" fill="white"/>
<path d="M3.667 4.32987C3.75854 4.42142 3.8785 4.46717 3.99845 4.46717C4.1184 4.46717 4.23839 4.42142 4.32989 4.32987C4.51294 4.14683 4.51294 3.85002 4.32989 3.66693L2.12348 1.46052C1.94044 1.27748 1.64363 1.27748 1.46054 1.46052C1.27745 1.64357 1.2775 1.94037 1.46054 2.12346L3.667 4.32987Z" fill="white"/>
<path d="M6.21886 3.05539C6.47775 3.05539 6.6876 2.84553 6.6876 2.58665V0.968741C6.6876 0.709855 6.47775 0.5 6.21886 0.5C5.95998 0.5 5.75012 0.709855 5.75012 0.968741V2.58665C5.75012 2.84553 5.95998 3.05539 6.21886 3.05539Z" fill="white"/>
<path d="M0.968985 6.68748H2.58689C2.84578 6.68748 3.05563 6.47763 3.05563 6.21874C3.05563 5.95986 2.84578 5.75 2.58689 5.75H0.968985C0.710099 5.75 0.500244 5.95986 0.500244 6.21874C0.500244 6.47763 0.710099 6.68748 0.968985 6.68748Z" fill="white"/>
<path d="M21.0016 4.46719C21.1216 4.46719 21.2416 4.42144 21.3331 4.32989L23.5395 2.12348C23.7225 1.94044 23.7225 1.64363 23.5395 1.46054C23.3564 1.27745 23.0596 1.2775 22.8765 1.46054L20.6701 3.66695C20.4871 3.85 20.4871 4.1468 20.6701 4.32989C20.7617 4.42144 20.8817 4.46719 21.0016 4.46719Z" fill="white"/>
<path d="M18.7811 3.05539C19.04 3.05539 19.2499 2.84553 19.2499 2.58665V0.968741C19.2499 0.709855 19.04 0.5 18.7811 0.5C18.5222 0.5 18.3124 0.709855 18.3124 0.968741V2.58665C18.3124 2.84553 18.5222 3.05539 18.7811 3.05539Z" fill="white"/>
<path d="M21.9445 6.21874C21.9445 6.47763 22.1543 6.68748 22.4132 6.68748H24.0311C24.29 6.68748 24.4998 6.47763 24.4998 6.21874C24.4998 5.95986 24.29 5.75 24.0311 5.75H22.4132C22.1543 5.75 21.9445 5.95986 21.9445 6.21874Z" fill="white"/>
</svg>
