<svg width="25" height="25" viewBox="0 0 25 25" fill="none" xmlns="http://www.w3.org/2000/svg">
<g opacity="0.48" clip-path="url(#clip0_626_3008)">
<path d="M20.4637 17.4841C19.9928 16.722 19.0235 16.4802 18.1588 16.9092L14.1705 18.8877C14.0298 18.2975 13.5856 17.7946 12.9639 17.6093L11.1163 17.0605C9.78548 16.665 8.03381 16.3399 6.28496 17.3474C6.17673 17.4101 6.07951 17.4728 5.99368 17.528C5.66096 17.7423 5.45739 17.8727 4.87558 17.8765C4.68962 17.4175 4.23967 17.0929 3.7151 17.0929H1.82225C1.13192 17.0929 0.570312 17.6549 0.570312 18.3456V22.7436C0.570312 23.4343 1.13192 23.9963 1.82225 23.9963H3.71514C4.37842 23.9963 4.92255 23.4774 4.96417 22.8241C5.74764 22.835 6.26115 22.8943 7.32474 23.2079C7.85921 23.3652 10.412 24.1094 10.6039 24.1651C11.2307 24.347 11.7575 24.4999 12.3066 24.4999C12.9276 24.4999 13.5771 24.3043 14.4314 23.734C14.4354 23.7313 14.4394 23.7286 14.4433 23.7258L19.9346 19.8103C20.7126 19.2562 20.9401 18.2563 20.4637 17.4841ZM4.02953 22.7436C4.02953 22.9145 3.88553 23.0588 3.7151 23.0588H1.82225C1.65181 23.0588 1.50781 22.9145 1.50781 22.7436V18.3456C1.50781 18.1748 1.65181 18.0304 1.82225 18.0304H3.71514C3.88558 18.0304 4.02958 18.1748 4.02958 18.3456V22.7436H4.02953ZM19.3906 19.0468L13.905 22.9582C12.6622 23.7863 12.1353 23.6334 10.8652 23.2648C10.6709 23.2083 8.12363 22.4657 7.58972 22.3086C6.44945 21.9724 5.88615 21.9005 4.96708 21.8871V18.8126C5.76362 18.7911 6.13862 18.5499 6.50143 18.3162C6.58229 18.2641 6.66587 18.2102 6.75394 18.1592C7.89155 17.5038 9.11629 17.444 10.8493 17.9592L12.6966 18.5078C13.1249 18.6355 13.3725 19.0863 13.2491 19.5121C13.2489 19.5129 13.2486 19.5138 13.2484 19.5146C13.1224 19.9408 12.6723 20.1867 12.2445 20.0626L9.603 19.2946C9.35428 19.2223 9.09426 19.3653 9.02198 19.6139C8.9497 19.8624 9.09262 20.1225 9.34125 20.1948L11.9833 20.9629C12.8356 21.2099 13.7285 20.7757 14.074 19.9821L18.5755 17.749C18.9368 17.5698 19.4274 17.5904 19.666 17.9765C19.8796 18.3227 19.7612 18.7828 19.3906 19.0468Z" fill="#212121"/>
<path d="M23.9608 5.93983H22.0034C22.1031 4.45085 21.6056 2.92629 20.5109 1.79C19.66 0.90852 18.4932 0.452053 17.2243 0.503991C16.0166 0.553678 14.8497 1.05069 13.9386 1.90334L13.8744 1.96339C13.7399 2.08939 13.6018 2.21877 13.5167 2.28411C13.4316 2.21877 13.2935 2.08939 13.159 1.96339L13.095 1.90353C12.1837 1.05074 11.0168 0.553725 9.8091 0.504037C8.54053 0.4521 7.37344 0.908567 6.52215 1.79038C5.42762 2.92648 4.93028 4.45094 5.02989 5.93988H3.07263C2.81374 5.93988 2.60388 6.14973 2.60388 6.40862C2.60388 6.66751 2.81374 6.87737 3.07263 6.87737H5.17384C5.39293 7.78126 5.84218 8.63682 6.52229 9.34219C6.52623 9.34632 6.53026 9.35035 6.53438 9.35428L7.07597 9.87647C7.2623 10.0561 7.55911 10.0507 7.73878 9.86438C7.91845 9.678 7.91306 9.38124 7.72669 9.20157L7.19143 8.68547C6.68869 8.16202 6.33985 7.53901 6.14288 6.87733H7.57871L8.73234 8.42771C8.82234 8.54865 8.96494 8.61905 9.11583 8.61657C9.26658 8.61418 9.40701 8.53941 9.49312 8.41566L10.2531 7.32371L11.0467 8.9079C11.125 9.06413 11.2837 9.16383 11.4584 9.16665C11.4609 9.16669 11.4634 9.16669 11.4659 9.16669C11.6377 9.16669 11.7961 9.07257 11.8781 8.92111L13.5167 5.89441L15.1554 8.92111C15.2385 9.07477 15.4014 9.17016 15.575 9.16665C15.7498 9.16388 15.9084 9.06413 15.9867 8.9079L16.7803 7.32371L17.5404 8.41566C17.6265 8.53946 17.7669 8.61423 17.9178 8.61657C18.0676 8.61812 18.2113 8.54855 18.3013 8.42752L19.4536 6.87733H20.8905C20.6935 7.5391 20.3446 8.16216 19.8419 8.68566L13.5167 14.796L10.7522 12.1251C10.566 11.9452 10.2693 11.9503 10.0894 12.1365C9.90951 12.3227 9.91457 12.6194 10.1008 12.7993L13.191 15.7849C13.2819 15.8726 13.3993 15.9165 13.5167 15.9165C13.6341 15.9165 13.7516 15.8726 13.8424 15.7849L20.4994 9.354C20.5034 9.35011 20.5073 9.34618 20.5111 9.34219C21.1912 8.63677 21.6404 7.78121 21.8595 6.87737H23.9608C24.2197 6.87737 24.4295 6.66751 24.4295 6.40862C24.4295 6.14969 24.2197 5.93983 23.9608 5.93983ZM19.218 5.93983C19.0697 5.93983 18.9302 6.00995 18.8418 6.12892L17.9376 7.34532L17.0992 6.14078C17.0047 6.00508 16.8458 5.92872 16.6808 5.94105C16.5159 5.95291 16.3694 6.05078 16.2954 6.19862L15.5515 7.68357L13.9289 4.68663C13.847 4.53532 13.6888 4.44105 13.5167 4.44105C13.3446 4.44105 13.1864 4.53532 13.1045 4.68663L11.482 7.68357L10.7381 6.19862C10.664 6.05078 10.5175 5.95291 10.3526 5.94105C10.1873 5.92872 10.0287 6.00508 9.93426 6.14078L9.09567 7.3456L8.19019 6.12873C8.10174 6.00986 7.96228 5.93983 7.81416 5.93983H5.96748C5.86604 4.68715 6.27535 3.39776 7.19696 2.44109C8.53186 1.05838 10.8903 1.12428 12.4545 2.58814L12.5181 2.64762C12.9196 3.02365 13.1619 3.25062 13.5167 3.25062C13.8715 3.25062 14.1138 3.02365 14.5153 2.64762L14.579 2.588C16.1431 1.12424 18.5016 1.05838 19.8361 2.44076C20.7579 3.39757 21.1672 4.6871 21.0658 5.93983H19.218Z" fill="#212121"/>
<path d="M9.12285 10.5808C8.89129 10.4651 8.60971 10.5589 8.49393 10.7905C8.37815 11.022 8.47199 11.3036 8.70356 11.4194L8.70623 11.4207C8.77335 11.4543 8.8446 11.4702 8.91468 11.4702C9.08643 11.4702 9.25157 11.3748 9.33379 11.2104C9.44957 10.9789 9.35442 10.6966 9.12285 10.5808Z" fill="#212121"/>
</g>
<defs>
<clipPath id="clip0_626_3008">
<rect width="24" height="24" fill="white" transform="translate(0.5 0.5)"/>
</clipPath>
</defs>
</svg>
