<svg width="25" height="25" viewBox="0 0 25 25" fill="none" xmlns="http://www.w3.org/2000/svg">
<g opacity="0.48">
<path d="M12.5 9.19531C10.6778 9.19531 9.19531 10.6778 9.19531 12.5C9.19531 14.3222 10.6778 15.8047 12.5 15.8047C14.3222 15.8047 15.8047 14.3222 15.8047 12.5C15.8047 10.6778 14.3222 9.19531 12.5 9.19531ZM12.5 15.1016C11.0655 15.1016 9.89844 13.9345 9.89844 12.5C9.89844 11.0655 11.0655 9.89844 12.5 9.89844C13.9345 9.89844 15.1016 11.0655 15.1016 12.5C15.1016 13.9345 13.9345 15.1016 12.5 15.1016Z" fill="#212121" stroke="#212121" stroke-width="0.4"/>
<path d="M21.1953 9.19531C19.3731 9.19531 17.8906 10.6778 17.8906 12.5C17.8906 14.3222 19.3731 15.8047 21.1953 15.8047C23.0175 15.8047 24.5 14.3222 24.5 12.5C24.5 10.6778 23.0175 9.19531 21.1953 9.19531ZM21.1953 15.1016C19.7608 15.1016 18.5938 13.9345 18.5938 12.5C18.5938 11.0655 19.7608 9.89844 21.1953 9.89844C22.6298 9.89844 23.7969 11.0655 23.7969 12.5C23.7969 13.9345 22.6298 15.1016 21.1953 15.1016Z" fill="#212121" stroke="#212121" stroke-width="0.4"/>
<path d="M3.80469 9.19531C3.19887 9.19531 2.60623 9.36078 2.09089 9.67391C1.92495 9.77473 1.87217 9.99102 1.973 10.157C2.07378 10.3229 2.29006 10.3755 2.456 10.2749C2.86128 10.0286 3.32764 9.89848 3.80469 9.89848C5.2392 9.89848 6.40625 11.0655 6.40625 12.5C6.40625 13.9346 5.2392 15.1016 3.80469 15.1016C2.37017 15.1016 1.20312 13.9345 1.20312 12.5C1.20312 12.0229 1.3333 11.5565 1.57953 11.1513C1.68036 10.9854 1.62758 10.7691 1.46164 10.6683C1.2957 10.5675 1.07947 10.6203 0.978641 10.7862C0.665516 11.3015 0.5 11.8941 0.5 12.5C0.5 14.3222 1.98247 15.8047 3.80469 15.8047C5.62691 15.8047 7.10938 14.3222 7.10938 12.5C7.10938 10.6778 5.62691 9.19531 3.80469 9.19531Z" fill="#212121" stroke="#212121" stroke-width="0.4"/>
</g>
</svg>
