<svg width="24" height="25" viewBox="0 0 24 25" fill="none" xmlns="http://www.w3.org/2000/svg">
<g opacity="0.48" clip-path="url(#clip0_626_3018)">
<path d="M12 16.0625C12.2587 16.0625 12.4688 15.8525 12.4688 15.5938C12.4688 15.335 12.2587 15.125 12 15.125C11.7413 15.125 11.5312 15.335 11.5312 15.5938C11.5312 15.8525 11.7413 16.0625 12 16.0625Z" fill="#212121"/>
<path d="M18.0306 13.5946C17.948 13.4518 17.7962 13.363 17.6312 13.3606C17.6291 13.3606 17.627 13.3606 17.6248 13.3606C17.4622 13.3606 17.3112 13.445 17.2257 13.5836L15.4234 16.5124L12.4688 11.7112V6.125H19.5C19.6802 6.125 19.8444 6.02173 19.9224 5.85931C20.0006 5.6969 19.9787 5.50409 19.8661 5.36346L18.2252 3.3125L19.8661 1.26154C19.9787 1.12091 20.0006 0.928101 19.9224 0.765686C19.8444 0.603271 19.6802 0.5 19.5 0.5H12C11.7411 0.5 11.5313 0.709839 11.5313 0.96875V11.7112L8.57668 16.5126L6.77419 13.5836C6.68777 13.4432 6.53432 13.3584 6.3688 13.3606C6.20364 13.3628 6.05202 13.4518 5.96926 13.5946L0.0630113 23.7963C-0.020851 23.9415 -0.0210341 24.1202 0.0626451 24.2654C0.146324 24.4106 0.301232 24.5 0.468773 24.5H23.5313C23.6988 24.5 23.8537 24.4106 23.9374 24.2654C24.0211 24.1202 24.0209 23.9413 23.9369 23.7963L18.0306 13.5946ZM8.98171 17.6429C8.98226 17.642 8.98281 17.6412 8.98336 17.6403L12 12.7382L18.661 23.5625H5.33883L8.98171 17.6429ZM17.259 3.01971C17.122 3.19092 17.122 3.43408 17.259 3.60529L18.5246 5.1875H12.4688V1.4375H18.5246L17.259 3.01971ZM6.38729 14.7436L8.02627 17.4069L4.238 23.5625H1.28176L6.38729 14.7436ZM19.7619 23.5625L15.9738 17.4067L17.6128 14.7436L22.7183 23.5625H19.7619Z" fill="#212121"/>
<path d="M15.7455 22.4016C15.8811 22.6222 16.1699 22.6907 16.3904 22.555C16.6108 22.4194 16.6797 22.1308 16.5438 21.9103L13.4576 16.8951C13.3221 16.6746 13.0333 16.6058 12.8127 16.7414C12.5922 16.8773 12.5235 17.1659 12.6592 17.3863L15.7455 22.4016Z" fill="#212121"/>
</g>
<defs>
<clipPath id="clip0_626_3018">
<rect width="24" height="24" fill="white" transform="translate(0 0.5)"/>
</clipPath>
</defs>
</svg>
