<svg width="24" height="25" viewBox="0 0 24 25" fill="none" xmlns="http://www.w3.org/2000/svg">
<g opacity="0.48" clip-path="url(#clip0_626_2974)">
<path d="M23.5312 0.5H16.0842C15.8946 0.5 15.7237 0.614234 15.6511 0.789359C15.5786 0.964531 15.6187 1.16614 15.7528 1.3002L17.5068 3.05427L11.6031 8.95798L6.15069 3.50558C5.9676 3.32258 5.67088 3.32258 5.48774 3.50558L0.138506 8.85481C-0.044541 9.03786 -0.044541 9.33467 0.138506 9.51777C0.230053 9.60927 0.350006 9.65506 0.469959 9.65506C0.589912 9.65506 0.709865 9.60927 0.801412 9.51777L5.81924 4.49998L12.3493 11.0301C12.4409 11.1216 12.5608 11.1674 12.6808 11.1674C12.8008 11.1674 12.9207 11.1216 13.0123 11.0301C13.1953 10.847 13.1953 10.5502 13.0123 10.3671L12.2661 9.62094L18.1697 3.71722L20.7872 6.33467L16.0297 11.0922C15.8466 11.2752 15.8466 11.5721 16.0297 11.7552C16.1212 11.8467 16.2412 11.8925 16.3611 11.8925C16.4811 11.8925 16.6011 11.8467 16.6926 11.7552L21.4501 6.99762L23.1997 8.74728C23.2894 8.83695 23.4093 8.88458 23.5313 8.88458C23.5917 8.88458 23.6526 8.87291 23.7106 8.84891C23.8857 8.77634 23.9999 8.60544 23.9999 8.41583V0.96875C24 0.709906 23.7901 0.5 23.5312 0.5ZM23.0625 7.28412L17.2159 1.4375H23.0625V7.28412Z" fill="#212121"/>
<path d="M15.5324 12.2526C15.4453 12.1649 15.3243 12.1152 15.201 12.1152C15.0778 12.1152 14.9568 12.1649 14.8696 12.2526C14.782 12.3398 14.7323 12.4607 14.7323 12.584C14.7323 12.7073 14.782 12.8282 14.8696 12.9153C14.9568 13.0025 15.0778 13.0527 15.201 13.0527C15.3243 13.0527 15.4453 13.0026 15.5324 12.9153C15.6196 12.8282 15.6698 12.7073 15.6698 12.584C15.6698 12.4607 15.6196 12.3398 15.5324 12.2526Z" fill="#212121"/>
<path d="M9.02288 12.9382L6.48217 10.3975L7.23868 9.64098C7.42177 9.45793 7.42177 9.16112 7.23873 8.97807C7.05563 8.79507 6.75891 8.79507 6.57577 8.97807L0.138384 15.4155C-0.0446631 15.5985 -0.0446631 15.8953 0.138384 16.0784C0.229931 16.1699 0.349884 16.2157 0.469837 16.2157C0.58979 16.2157 0.709743 16.1699 0.80129 16.0784L5.81926 11.0604L8.35998 13.6011C8.45152 13.6926 8.57148 13.7384 8.69143 13.7384C8.81138 13.7384 8.93134 13.6926 9.02288 13.6011C9.20593 13.4181 9.20593 13.1213 9.02288 12.9382Z" fill="#212121"/>
<path d="M12.0219 17.6983L12 17.6982C11.7412 17.6982 11.5312 17.9081 11.5312 18.167C11.5312 18.4258 11.7412 18.6357 12 18.6357L12.015 18.6358C12.0161 18.6358 12.0173 18.6358 12.0185 18.6358C12.2757 18.6358 12.4853 18.4282 12.4872 18.1705C12.4891 17.9117 12.2808 17.7002 12.0219 17.6983Z" fill="#212121"/>
<path d="M23.5312 23.5624H22.7091V21.4618C22.7091 21.2465 22.5625 21.059 22.3536 21.007L20.1749 20.4642L19.3939 18.5796L20.5505 16.6555C20.6614 16.471 20.6324 16.2347 20.4802 16.0825L18.6636 14.2659C18.5114 14.1137 18.2751 14.0848 18.0906 14.1957L16.1665 15.3523L14.282 14.5713L13.7392 12.3926C13.6872 12.1837 13.4996 12.0371 13.2843 12.0371H10.7156C10.5004 12.0371 10.3128 12.1837 10.2608 12.3926L9.71798 14.5713L7.83347 15.3523L5.90934 14.1957C5.72484 14.0847 5.48859 14.1137 5.33634 14.2659L3.5198 16.0826C3.36759 16.2348 3.33862 16.4711 3.44953 16.6556L4.60612 18.5796L3.82514 20.4642L1.64644 21.007C1.43756 21.059 1.29098 21.2465 1.29098 21.4618V23.5624H0.46875C0.209906 23.5624 0 23.7723 0 24.0312C0 24.29 0.209906 24.4999 0.46875 24.4999H23.5312C23.7901 24.4999 24 24.29 24 24.0312C24 23.7723 23.7901 23.5624 23.5312 23.5624ZM21.7715 23.5624H16.9808C17.2412 21.9701 16.7265 20.3343 15.5692 19.1768C15.0616 18.6693 14.4667 18.2833 13.801 18.0295C13.5592 17.9372 13.2883 18.0585 13.1961 18.3005C13.1038 18.5423 13.2252 18.8132 13.467 18.9054C14.0085 19.1119 14.4928 19.4262 14.9062 19.8397C15.8853 20.8189 16.2996 22.2186 16.028 23.5624H7.97161C7.70011 22.2185 8.11434 20.8188 9.09347 19.8397C9.51103 19.4222 10.0005 19.1059 10.5482 18.8995C10.7905 18.8083 10.9129 18.5379 10.8217 18.2956C10.7304 18.0534 10.4601 17.931 10.2178 18.0222C9.54441 18.2758 8.94305 18.6643 8.43052 19.1768C7.27317 20.3342 6.75848 21.97 7.01883 23.5624H2.22844V21.8281L4.281 21.3168C4.42523 21.2808 4.54383 21.1787 4.60073 21.0414L5.56266 18.7201C5.61956 18.5828 5.60798 18.4266 5.53134 18.2992L4.44169 16.4865L5.74027 15.1879L7.55302 16.2776C7.68042 16.3542 7.83675 16.3658 7.97395 16.3089L10.2952 15.347C10.4325 15.29 10.5346 15.1715 10.5705 15.0272L11.0819 12.9747H12.918L13.4294 15.0272C13.4653 15.1715 13.5675 15.29 13.7048 15.347L16.026 16.3089C16.1632 16.3658 16.3195 16.3542 16.4469 16.2776L18.2596 15.1879L19.5582 16.4865L18.4686 18.2992C18.3919 18.4266 18.3803 18.5828 18.4373 18.7201L19.3992 21.0414C19.4561 21.1787 19.5747 21.2808 19.7189 21.3168L21.7715 21.8281V23.5624Z" fill="#212121"/>
</g>
<defs>
<clipPath id="clip0_626_2974">
<rect width="24" height="24" fill="white" transform="translate(0 0.5)"/>
</clipPath>
</defs>
</svg>
