<svg width="222" height="239" viewBox="0 0 222 239" fill="none" xmlns="http://www.w3.org/2000/svg">
<path d="M11.1794 23.633C11.0245 22.3795 14.3193 21.1683 15.2486 20.2951C17.7689 18.7318 20.0639 16.8305 22.5279 15.1687C23.4572 14.6476 24.6822 13.2815 25.8086 13.3237C26.8364 12.197 28.9343 10.9858 29.8355 10.169C35.0732 7.3804 30.4268 3.36655 32.8064 0.310393C36.8333 -1.36556 38.5088 4.42283 38.6777 7.45082C40.7897 7.05647 42.0147 8.53526 41.5219 10.5633C43.2537 10.2957 44.1971 12.2252 43.4086 13.6336C47.9283 17.0559 40.8742 20.0275 38.551 22.0838C37.2416 22.9992 35.8477 23.7738 34.5382 24.7033C33.975 25.4357 32.7923 25.9286 32.1868 26.506C29.1737 28.6749 26.0198 30.7311 23.3446 33.3225C23.1193 34.0126 22.359 34.407 21.655 34.1676C19.1346 33.1676 17.5436 30.7593 15.6287 28.9707C14.3756 27.675 10.5036 25.6751 11.1653 23.647L11.1794 23.633Z" fill="white"/>
<path d="M39.8324 58.7715C40.9306 59.3489 43.4228 59.7996 43.282 61.3629C43.2116 61.7995 42.7188 62.0952 42.3104 61.884C41.1418 61.377 40.0295 60.6869 38.8045 60.363C37.481 59.5602 38.4807 57.9828 39.8324 58.7715Z" fill="white"/>
<path d="M46.3231 59.2927C45.8726 58.1801 45.0278 56.9407 45.1263 55.7295C46.5203 53.9268 47.5763 57.7998 47.703 58.8279C47.9001 59.7293 46.7174 60.0955 46.3231 59.2786V59.2927Z" fill="white"/>
<path d="M52.7578 55.9123C52.969 55.1518 52.5325 53.5181 53.6448 53.4336C54.8135 53.7294 54.4333 55.3349 54.56 56.2503C54.5459 57.0813 54.8135 58.9544 53.504 58.7854C52.3495 58.377 52.7015 56.8559 52.7578 55.9123Z" fill="white"/>
<path d="M150.811 43.8006C150.755 43.7161 150.713 43.6175 150.685 43.5048C149.629 39.8994 146.841 32.8716 153.106 38.66C153.402 38.9699 153.965 39.3642 154.514 39.8149C154.711 39.9135 154.894 39.9839 155.063 40.0402C160.16 34.3927 162.892 32.6322 160.836 42.1246C169.087 46.1244 169.143 47.6313 159.766 47.9975C159.02 49.1665 158.147 54.9267 156.598 54.5042C154.359 53.2507 154.683 50.0115 153.557 47.9553C144.334 50.6171 144.546 47.9271 150.811 43.7865V43.8006Z" fill="white"/>
<path d="M187.067 19.4357C185.927 17.4781 184.265 15.6613 184.153 13.2952C184.265 7.64766 188.743 8.22509 190.559 12.7037C193.094 8.59127 198.036 10.6052 196.445 15.2951C195.698 17.7316 193.46 19.2526 191.869 21.1117C191.094 21.6609 190.235 23.9566 189.278 23.4918C188.687 23.2383 188.602 22.5623 188.405 22.0271C188.053 21.1117 187.56 20.2807 187.081 19.4357H187.067Z" fill="white"/>
<path d="M207.117 73.4611C206.301 76.9256 201.232 78.4044 198.542 80.2916C201.767 79.9396 203.977 84.1365 201.725 86.5307C205.132 87.0377 204.174 90.9389 202.245 92.6289C205.78 92.8684 205.906 97.6146 203.611 99.544C201.668 101.797 198.838 102.91 196.318 104.389C193.783 120.36 188.954 135.753 184.308 151.203C175.719 180.934 163.23 217.495 131.761 181.328C132.423 197.651 133.676 213.946 134.337 230.269C135.717 231.184 134.549 233.128 134.788 234.48C134.858 235.198 134.844 236.48 133.802 236.311C102.122 237.184 70.4281 237.86 38.7762 239.015C37.8047 239.043 37.6217 237.902 37.7765 237.156C37.8751 235.283 37.9455 233.409 38.0159 231.536C37.4809 230.015 37.7343 228.325 37.6498 226.734C37.6076 220.678 37.2556 214.65 36.7628 208.622C36.7487 203.144 36.6924 197.693 35.7631 192.271C34.341 195.045 32.764 197.609 31.1448 199.341C31.5109 201.059 28.9202 202.355 27.4699 202.2C7.89869 202.918 4.60396 179.286 3.16779 164.315C1.08395 145.837 -1.15478 127.106 0.717864 108.529C1.47819 97.7836 6.95532 87.8968 17.4027 84.0238C25.8226 79.7987 35.1295 77.6721 43.9154 74.3483C44.8025 74.1652 45.7599 73.5737 46.661 73.7287C46.647 72.5034 45.8866 69.8838 46.7596 68.9965C48.5478 67.9543 51.054 68.5459 52.6591 69.7148C53.3491 70.6162 53.8559 71.6302 54.2502 72.7146C56.8127 71.9682 59.488 72.0668 62.0928 71.2218C63.5571 62.7997 65.7113 54.5467 67.5699 46.2091C60.4032 41.97 61.9801 34.8014 65.5565 31.9001C63.9513 23.4358 68.3865 14.3941 73.3005 7.71845C74.7366 5.85941 77.0176 4.97214 78.665 3.35251C79.0311 3.12717 79.3831 3.09901 79.6787 3.19759C92.7732 -0.788088 111.204 6.00024 124.805 7.46495C126.551 5.95799 128.368 4.50737 130.564 3.71869C135.943 1.76106 138.801 5.40873 135.83 10.2394C137.52 9.94367 140.265 9.59158 140.673 11.8168C140.899 13.3519 140.716 15.0983 139.632 16.2813C143.574 16.8024 142.602 21.5768 139.674 22.9288C135.83 25.154 131.141 25.9568 126.762 25.9005C126.664 26.7314 126.509 27.6328 126.326 28.506C126.678 28.9848 126.706 29.6327 126.002 30.027C124.031 40.4489 122.989 50.6173 120.666 60.9266C119.948 63.3067 119.835 66.2502 117.85 67.9825C115.104 69.9965 111.317 69.081 108.12 69.3345C105.164 69.3064 102.15 69.5458 99.2359 68.912C99.2641 70.9682 99.1655 73.0104 99.0951 75.0525C101.897 74.5596 109.528 77.5876 110.767 77.8833C118.878 81.193 127.579 83.2633 135.14 87.8264C145.545 96.3329 150.938 142.457 154.289 157.667C158.119 146.598 162.624 135.697 167.468 125.05C173.649 111.656 177.957 97.5019 183.308 83.7703C183.406 82.4746 184.589 81.2916 185.138 80.1367C186.208 78.5875 187.954 77.7425 189.531 76.7989C192.77 74.63 196.402 73.3202 200.105 72.2358C201.795 71.771 203.513 71.0809 205.301 71.2781C206.371 71.3203 207.174 72.433 207.131 73.447L207.117 73.4611Z" fill="white"/>
<path d="M218.086 66.9537C217.213 67.0383 216.326 68.0804 215.523 67.5312C214.355 66.4749 215.509 65.306 216.706 65.0665C217.663 64.8412 219.212 63.8413 219.789 65.1229C220.324 66.2777 218.916 66.658 218.086 66.9397V66.9537Z" fill="white"/>
<path d="M221.296 75.8975C220.381 76.8974 218.705 76.1369 217.494 76.4327C216.79 76.4327 216.368 75.2496 217.086 74.9116C218.367 74.2497 221.972 73.3483 221.296 75.8975Z" fill="white"/>
<path d="M221.972 70.4049C221.408 71.4471 218.48 71.1795 217.297 71.4612C215.974 71.0528 216.438 69.6585 217.691 69.5177C218.987 69.236 222.296 68.0107 221.958 70.419L221.972 70.4049Z" fill="white"/>
<path d="M38.5652 22.055C37.2557 22.9705 35.8618 23.7451 34.5524 24.6746C33.9892 25.4069 32.8064 25.8999 32.201 26.4773C29.1879 28.6462 26.0339 30.7024 23.3587 33.2938C23.1335 33.9839 22.3731 34.3783 21.6691 34.1388C19.1488 33.1389 17.5578 30.7306 15.6429 28.9419C14.3897 27.6462 10.5177 25.6464 11.1795 23.6183C11.0246 22.3649 14.3194 21.1537 15.2486 20.2805C17.769 18.7172 20.064 16.8159 22.528 15.154C23.4573 14.6329 24.6823 13.2668 25.8087 13.3091C26.8365 12.1824 28.9344 10.9712 29.8356 10.1543C35.0733 7.36575 30.4269 3.3519 32.8064 0.295745C36.8333 -1.38021 38.5089 4.40818 38.6778 7.43617C40.7898 7.04183 42.0148 8.52061 41.522 10.5487C43.2538 10.2811 44.1972 12.2105 43.4087 13.6189C47.9284 17.0412 40.8743 20.0129 38.5511 22.0691L38.5652 22.055Z" fill="white"/>
<path d="M43.2961 61.3492C43.2257 61.7858 42.7329 62.0816 42.3246 61.8703C41.156 61.3633 40.0436 60.6732 38.8187 60.3493C37.4952 59.5465 38.4948 57.9691 39.8465 58.7578C40.9448 59.3353 43.4369 59.7859 43.2961 61.3492Z" fill="white"/>
<path d="M46.3231 59.2927C45.8726 58.1801 45.0278 56.9407 45.1263 55.7295C46.5203 53.9268 47.5763 57.7998 47.703 58.8279C47.9001 59.7293 46.7174 60.0955 46.3231 59.2786V59.2927Z" fill="white"/>
<path d="M53.5182 58.7854C52.3636 58.377 52.7156 56.8559 52.7719 55.9123C52.9831 55.1518 52.5467 53.5181 53.659 53.4336C54.8276 53.7294 54.4475 55.3349 54.5742 56.2503C54.5601 57.0813 54.8276 58.9544 53.5182 58.7854Z" fill="white"/>
<path d="M159.78 47.9979C159.034 49.1669 158.161 54.9271 156.612 54.5046C154.374 53.2511 154.697 50.0119 153.571 47.9557C144.349 50.6175 144.56 47.9275 150.825 43.7869C150.769 43.7024 150.727 43.6038 150.699 43.4911C149.643 39.8857 146.855 32.858 153.12 38.6464C153.416 38.9562 153.979 39.3505 154.528 39.8012C154.726 39.8998 154.909 39.9702 155.078 40.0266C160.175 34.379 162.906 32.6186 160.85 42.1109C169.101 46.1107 169.158 47.6177 159.78 47.9838V47.9979Z" fill="white"/>
<path d="M196.445 15.2951C195.698 17.7316 193.46 19.2526 191.869 21.1117C191.094 21.6609 190.235 23.9566 189.278 23.4918C188.686 23.2383 188.602 22.5623 188.405 22.0271C188.053 21.1117 187.56 20.2807 187.081 19.4357C185.941 17.4781 184.279 15.6613 184.167 13.2952C184.279 7.64766 188.757 8.22509 190.573 12.7037C193.108 8.59127 198.05 10.6052 196.459 15.2951H196.445Z" fill="white"/>
<path d="M198.542 80.3053C201.767 79.9532 203.977 84.1502 201.725 86.5444C205.132 87.0514 204.174 90.9526 202.245 92.6426C205.78 92.882 205.906 97.6282 203.611 99.5577C201.668 101.811 198.838 102.924 196.318 104.402C193.783 120.373 188.954 135.767 184.308 151.217C175.719 180.947 163.23 217.508 131.761 181.342C132.423 197.665 133.676 213.959 134.337 230.282C135.717 231.198 134.549 233.141 134.788 234.493C134.858 235.212 134.844 236.493 133.802 236.324C102.122 237.197 70.4281 237.873 38.7762 239.028C37.8047 239.057 37.6217 237.916 37.7765 237.169C37.8751 235.296 37.9455 233.423 38.0159 231.55C37.4809 230.029 37.7343 228.339 37.6498 226.747C37.6076 220.691 37.2556 214.664 36.7628 208.636C36.7487 203.157 36.6924 197.707 35.7631 192.285C34.341 195.059 32.764 197.622 31.1448 199.355C31.5109 201.073 28.9202 202.369 27.4699 202.214C7.89869 202.932 4.60396 179.299 3.16779 164.329C1.08395 145.851 -1.15478 127.119 0.717864 108.543C1.47819 97.7972 6.95532 87.9105 17.4027 84.0375C25.8226 79.8124 35.1295 77.6857 43.9154 74.362C44.8025 74.1789 45.7599 73.5874 46.661 73.7423C46.647 72.517 45.8866 69.8975 46.7596 69.0102C48.5478 67.968 51.054 68.5595 52.6591 69.7285C53.3491 70.6298 53.8559 71.6439 54.2502 72.7283C56.8127 71.9819 59.488 72.0804 62.0928 71.2354C63.5571 62.8134 65.7113 54.5604 67.5699 46.2228C60.4032 41.9836 61.9801 34.815 65.5565 31.9138C63.9513 23.4495 68.3865 14.4078 73.3005 7.73213C74.7366 5.87308 77.0176 4.98581 78.665 3.36618C79.0311 3.14085 79.3831 3.11268 79.6787 3.21126C92.7732 -0.774416 111.204 6.01392 124.805 7.47862C126.551 5.97166 128.368 4.52105 130.564 3.73236C135.943 1.77473 138.801 5.4224 135.83 10.2531C137.52 9.95735 140.265 9.60525 140.673 11.8305C140.899 13.3656 140.716 15.112 139.632 16.295C143.574 16.8161 142.602 21.5905 139.674 22.9425C135.83 25.1677 131.141 25.9705 126.762 25.9142C126.664 26.7451 126.509 27.6464 126.326 28.5196C126.678 28.9985 126.706 29.6463 126.002 30.0407C124.031 40.4626 122.989 50.631 120.666 60.9403C119.948 63.3204 119.835 66.2639 117.85 67.9962C115.104 70.0101 111.317 69.0947 108.12 69.3482C105.164 69.32 102.15 69.5595 99.2359 68.9257C99.2641 70.9819 99.1655 73.024 99.0951 75.0662C101.897 74.5733 109.528 77.6012 110.767 77.897C118.878 81.2067 127.579 83.277 135.14 87.8401C145.545 96.3466 150.938 142.471 154.289 157.681C158.119 146.611 162.624 135.71 167.468 125.063C173.649 111.67 177.957 97.5156 183.308 83.784C183.406 82.4883 184.589 81.3053 185.138 80.1504C186.208 78.6012 187.954 77.7562 189.531 76.8126C192.77 74.6437 196.402 73.3339 200.105 72.2495C201.795 71.7847 203.513 71.0946 205.301 71.2918C206.371 71.334 207.174 72.4466 207.131 73.4606C206.315 76.9252 201.246 78.404 198.557 80.2912L198.542 80.3053Z" fill="white"/>
<path d="M218.086 66.9537C217.213 67.0383 216.326 68.0804 215.523 67.5312C214.355 66.4749 215.509 65.306 216.706 65.0665C217.663 64.8412 219.212 63.8413 219.789 65.1229C220.324 66.2777 218.916 66.658 218.086 66.9397V66.9537Z" fill="white"/>
<path d="M221.296 75.8975C220.381 76.8974 218.705 76.1369 217.494 76.4327C216.79 76.4327 216.368 75.2496 217.086 74.9116C218.367 74.2497 221.972 73.3483 221.296 75.8975Z" fill="white"/>
<path d="M221.972 70.4049C221.408 71.4471 218.48 71.1795 217.297 71.4612C215.974 71.0528 216.438 69.6585 217.691 69.5177C218.987 69.236 222.296 68.0107 221.958 70.419L221.972 70.4049Z" fill="white"/>
<path d="M112.316 44.1104C115.147 47.1243 110.993 50.9409 107.712 49.8283C106.318 49.3917 101.602 48.1383 103.854 46.1243C104.474 45.8567 104.995 46.4201 105.474 46.7299C106.755 47.5045 108.332 48.2369 109.852 47.8425C115.147 45.3638 106.304 43.2512 105.248 40.6035C104.615 39.2374 105.178 37.6459 105.206 36.2094C105.389 35.0968 105.347 33.9419 105.558 32.8575C106.445 31.7871 107.276 33.4349 107.008 34.3081C106.867 36.0827 106.67 37.8572 106.6 39.6458C108.177 41.519 110.711 42.2654 112.302 44.1104H112.316Z" fill="#212121"/>
<path d="M106.67 54.434C107.177 53.2228 108.754 54.5607 108.177 55.4902C107.219 57.5746 105.122 59.0534 102.77 58.5182C98.7433 58.1802 98.5039 50.8004 100.503 52.1806C101.334 53.1664 100.546 54.772 101.334 55.8564C102.798 57.7577 106.192 56.6874 106.656 54.434H106.67Z" fill="#212121"/>
<path d="M98.7715 33.4212C96.4764 27.8863 82.4105 28.2806 87.1414 35.914C88.7465 38.0829 91.5766 39.0969 94.2095 39.0828C95.8287 39.2518 100.391 38.4209 99.6867 36.1111C100.32 35.2239 99.1376 34.2099 98.7715 33.4071V33.4212ZM95.8428 37.0829C95.0121 37.1674 94.0265 37.1674 93.0409 37.0688C91.5766 36.9139 90.0982 36.4914 89.0562 35.6605C88.2818 35.0267 87.7609 34.1676 87.6623 32.9987C89.4786 30.703 93.0268 31.3931 95.3782 32.4635C96.8003 33.1395 97.5043 34.6324 98.4195 35.8154C97.8985 36.7167 96.758 36.8576 95.8287 37.097L95.8428 37.0829Z" fill="#212121"/>
<path d="M91.4356 31.5061C95.2936 31.4638 95.2372 37.9282 91.4638 37.2663C87.9719 37.1959 87.8734 31.7877 91.4356 31.5061Z" fill="#212121"/>
<path d="M118.892 33.6181C115.991 33.0266 112.457 33.7308 110.458 36.0264C109.81 36.8433 108.853 38.5051 110.12 39.1952C111.908 42.7443 117.202 42.4908 120.286 40.9134C124.017 38.2657 123.06 34.9701 118.892 33.6181ZM115.949 40.0825C114.302 40.0966 112.626 39.5896 111.542 38.6037C111.373 38.4488 111.218 38.2939 111.077 38.1108C111.373 37.6742 111.753 37.2798 112.162 36.9278C113.091 36.1532 114.274 35.6321 115.499 35.4067C117.512 35.0405 119.652 35.4771 121.046 36.9137C120.455 39.0262 118.216 40.0543 115.935 40.0684L115.949 40.0825Z" fill="#212121"/>
<path d="M116.526 37.9698C116.878 39.843 114.865 41.6175 113.063 41.2654C108.332 39.0965 115.879 30.8998 116.526 37.9698Z" fill="#212121"/>
<path d="M105.206 28.8862C105.291 29.8157 104.178 30.2382 103.615 29.5059C100.334 28.2383 97.1804 26.6469 93.7168 25.9145C91.3654 25.4216 88.9155 25.3793 86.5782 24.8864C82.1993 20.1402 104.347 22.4781 105.206 28.8862Z" fill="#212121"/>
<path d="M28.6246 109.079C29.2442 109.572 30.3987 110.036 30.089 111.008C29.9622 111.417 29.4694 111.572 29.1174 111.332C28.1037 110.6 26.5549 109.938 26.2874 108.614C26.5126 106.896 27.9488 108.698 28.6387 109.079H28.6246Z" fill="#212121"/>
<path d="M33.0316 105.318C33.1302 106.487 35.1014 111.29 33.5385 111.586C33.1302 111.614 32.8204 111.262 32.6937 110.895C32.3276 109.783 32.2432 108.614 32.0038 107.473C31.8912 106.473 31.342 105.403 31.6659 104.431C32.1728 103.53 33.4118 104.516 33.0316 105.318Z" fill="#212121"/>
<path d="M19.909 158.822C20.7679 159.033 21.2044 160.652 20.0217 160.61C18.67 160.145 15.6569 160.469 15.6709 158.554C15.9385 156.737 18.8953 158.526 19.909 158.822Z" fill="#212121"/>
<path d="M207.117 73.4606C207.16 72.4325 206.357 71.334 205.287 71.2918C203.499 71.0946 201.781 71.7847 200.091 72.2495C196.374 73.3339 192.756 74.6437 189.517 76.8126C187.94 77.7421 186.194 78.6012 185.124 80.1504C184.575 81.3053 183.407 82.4883 183.294 83.784C177.943 97.5015 173.635 111.67 167.454 125.063C162.61 135.71 158.105 146.611 154.275 157.681C150.924 142.471 145.531 96.3466 135.126 87.8401C127.579 83.277 118.878 81.2207 110.753 77.897C109.514 77.6012 101.883 74.5592 99.0811 75.0662C99.1515 73.01 99.2501 70.9678 99.2219 68.9257C102.137 69.5595 105.15 69.32 108.106 69.3482C111.303 69.1088 115.09 70.0242 117.836 67.9962C119.807 66.2639 119.92 63.3345 120.652 60.9403C122.975 50.631 124.017 40.4626 125.988 30.0407C126.692 29.6322 126.664 28.9985 126.312 28.5196C126.495 27.6464 126.65 26.731 126.748 25.9142C131.127 25.9705 135.816 25.1677 139.66 22.9425C142.588 21.5905 143.546 16.8161 139.618 16.295C140.702 15.112 140.885 13.3515 140.66 11.8305C140.237 9.59117 137.506 9.94326 135.816 10.2531C138.787 5.40832 135.929 1.77473 130.55 3.73236C128.354 4.52105 126.523 5.97166 124.791 7.47862C111.19 6.01392 92.7592 -0.774416 79.6648 3.21126C79.3691 3.11268 79.0171 3.12676 78.651 3.36618C77.0036 4.98581 74.7086 5.859 73.2865 7.73213C68.3726 14.3937 63.9374 23.4495 65.5425 31.9138C61.9661 34.815 60.3892 41.9977 67.5559 46.2228C65.7114 54.5604 63.5572 62.8275 62.0788 71.2354C59.474 72.0804 56.7988 71.9819 54.2362 72.7283C53.856 71.6439 53.3492 70.6298 52.6452 69.7285C51.04 68.5595 48.5479 67.968 46.7456 69.0102C45.8727 69.8834 46.6189 72.503 46.6471 73.7423C45.7459 73.5874 44.7744 74.1789 43.9015 74.362C35.1155 77.6998 25.8086 79.8124 17.3887 84.0375C6.94134 87.9105 1.46421 97.7972 0.703885 108.543C-1.18284 127.119 1.06997 145.865 3.15381 164.329C4.58998 179.299 7.88471 202.932 27.456 202.214C28.9203 202.383 31.511 201.073 31.1309 199.355C32.736 197.622 34.3129 195.059 35.7491 192.285C36.6784 197.707 36.7347 203.157 36.7488 208.636C37.2557 214.664 37.5936 220.691 37.6358 226.747C37.7203 228.339 37.4669 230.029 38.0019 231.55C37.9456 233.423 37.8752 235.296 37.7626 237.169C37.6077 237.916 37.7907 239.057 38.7622 239.028C70.4142 237.859 102.122 237.197 133.788 236.324C134.83 236.493 134.844 235.212 134.774 234.493C134.549 233.141 135.703 231.198 134.323 230.282C133.676 213.959 132.409 197.679 131.747 181.342C163.23 217.523 175.705 180.947 184.294 151.217C188.94 135.767 193.755 120.373 196.304 104.402C198.81 102.924 201.64 101.825 203.597 99.5577C205.892 97.6282 205.766 92.882 202.232 92.6426C204.16 90.9526 205.118 87.0514 201.711 86.5444C203.963 84.1502 201.767 79.9532 198.528 80.3053C201.218 78.4181 206.301 76.9252 207.103 73.4747L207.117 73.4606ZM99.771 77.4322C102.672 77.7984 105.473 78.5871 108.247 79.5166C106.881 79.1364 106.107 85.1501 105.685 86.1641C104.854 88.2767 104.333 90.4737 103.728 92.6567C101.179 91.1075 98.6165 89.2203 95.9131 88.1077C96.9691 84.46 98.6447 81.0377 99.7851 77.4322H99.771ZM68.5134 51.3915C68.6119 49.7719 70.3438 45.8566 69.0484 44.8426C66.9505 43.3497 64.3175 41.4907 64.219 38.6599C64.3316 35.8713 66.4295 32.0828 69.6539 32.7166C71.442 33.0827 70.7803 36.153 71.2449 37.5614C71.6391 39.688 71.8503 41.8428 72.3572 43.9413C73.1457 46.6172 72.6529 49.0536 76.2715 48.8846C76.9473 48.8846 77.8344 49.2367 78.3412 48.617C79.4958 38.7162 79.8478 28.4915 79.876 18.4498C80.0168 18.3512 80.1153 18.1822 80.1998 17.9428C95.364 14.7599 110.894 19.2948 125.608 22.7876C125.439 22.8721 125.326 23.027 125.256 23.2242C124.904 24.534 125.017 25.9987 124.622 27.3366C122.144 26.6747 119.37 26.8296 116.85 27.2521C114.738 27.6183 112.809 28.4633 110.88 29.3647C109.895 29.6463 110.078 31.1392 110.993 31.4068C111.711 32.3081 113.063 31.4913 114.02 31.4631C117.315 30.7871 120.652 30.0407 124.031 30.1956C121.989 40.2232 121.046 50.4198 118.99 60.4332C118.272 62.9824 118.357 67.0385 114.921 67.2779C110.359 67.4751 105.755 67.4469 101.179 67.2497C100.151 67.292 98.6587 66.4329 97.7998 66.9399C97.3634 67.4328 97.5323 68.1934 97.476 68.799C97.476 70.3622 97.4197 71.9255 97.3493 73.4747C97.4901 74.6014 96.7157 76.5168 97.645 77.3055C94.6318 85.5726 91.6469 93.8679 87.9579 101.867C78.9467 92.868 71.2308 82.2207 64.1204 71.7424C65.106 64.5598 66.9223 58.3489 68.4711 51.3915H68.5134ZM57.1226 74.362C58.8967 73.9113 60.5581 73.9677 62.5012 73.4606C62.6702 73.5874 62.9377 73.6297 63.1207 73.5874C66.4014 78.3759 69.8228 83.108 73.3991 87.6852C73.3428 87.6711 73.2865 87.657 73.2161 87.6429C72.5966 87.6147 72.1883 88.2063 71.6532 88.4316C71.3575 88.6288 70.9492 88.84 70.5972 89.0794C69.6538 87.657 67.7812 87.3612 65.7818 87.5302C70.555 81.0517 63.0081 80.2349 57.7421 82.2066C57.5169 79.6011 56.9537 76.9534 57.1085 74.3479L57.1226 74.362ZM55.3204 74.6437C55.3908 76.714 55.5457 78.6153 55.7569 80.6574C55.4471 78.6998 55.2359 76.6295 54.7853 74.6859C54.9543 74.6859 55.1373 74.6578 55.3063 74.6437H55.3204ZM52.7578 74.7423C53.2224 76.3196 53.6448 81.094 54.5178 83.5586C53.5181 83.9248 52.5607 84.5022 52.2228 84.9952C51.8004 85.8402 52.4199 87.0514 53.4055 87.0373C53.856 87.0796 54.208 86.7415 54.546 86.488C55.25 85.9669 56.0807 85.6008 56.9537 85.4599C57.5169 85.4177 57.7562 85.0093 57.7562 84.5445C60.178 83.8826 62.8814 83.0375 65.3876 83.5586C65.1905 85.5022 62.9377 86.4176 61.6564 87.6147C60.6285 88.6288 61.6564 90.7132 63.1207 90.0371C63.3319 90.0935 63.6558 90.0794 63.7966 89.84C65.5566 89.5865 67.7108 88.9809 69.2878 90.0512C68.7668 92.5299 65.9367 93.1637 64.3598 94.727C63.7262 95.8255 64.9934 96.8255 66.0353 96.2903C67.5982 95.8396 69.1329 95.1636 70.8084 95.2058C73.3006 95.0932 71.5547 97.1212 70.5268 97.9099C69.513 99.0225 66.683 99.2056 66.7674 100.924C67.2321 102.966 69.8932 101.036 71.3294 101.374C75.8209 101.67 69.2737 105.473 67.9502 106.149C66.4718 107.459 60.4737 108.191 61.6141 110.698C57.7421 125.472 53.1802 140.034 48.2522 154.498C43.7043 151.752 32.2713 148.752 30.5677 148.048C30.7366 147.71 30.8493 147.358 30.9901 147.006C31.2294 146.823 31.3139 146.583 31.2717 146.344C41.5501 123.373 51.8004 95.572 48.1959 70.7002C51.744 70.5172 52.0538 71.5875 52.786 74.7141L52.7578 74.7423ZM25.5692 159.484C27.1462 156.399 28.6668 153.287 29.8637 150.048C35.4816 152.526 41.9302 153.54 47.4637 156.385C45.76 160.315 44.3943 164.385 42.9299 168.399C42.8032 168.018 42.4935 167.666 41.9443 167.497C38.3398 165.99 34.9888 163.976 31.4406 162.357C29.4835 161.54 27.1744 161.103 25.6396 159.568C25.5974 159.568 25.5552 159.54 25.5129 159.54C25.5552 159.54 25.5974 159.554 25.6396 159.568C25.6115 159.54 25.5833 159.512 25.5552 159.484H25.5692ZM26.231 199.932C14.7558 199.988 9.19415 188.792 7.47639 178.891C4.60406 164.469 3.50581 149.724 2.53429 135.049C-0.084597 88.9809 6.37814 89.7132 46.8864 75.9394C46.985 76.9675 47.0272 78.0097 46.985 79.0519C46.9146 84.6994 46.6752 90.2766 45.9712 95.8819C43.1834 108.374 39.3958 120.796 34.7776 132.795C34.5523 127.655 34.0736 122.514 33.2992 117.416C33.1865 116.36 32.9472 113.768 31.3421 114.712C30.9337 115.064 31.0605 115.641 31.1027 116.106C31.2576 119.486 31.8349 122.824 32.1587 126.19C32.567 129.626 32.5389 133.133 33.3273 136.499C29.2723 146.006 25.7945 155.456 20.7116 164.498C20.078 164.16 19.2051 164.765 18.5715 165.061C17.5718 165.695 15.2626 166.272 16.0089 167.849C17.1212 169.258 18.7404 167.173 19.8809 166.709C19.022 169.694 18.1913 170.962 17.4873 173.638C17.4873 174.539 18.6982 175.06 19.1487 174.159C20.5849 171.201 21.4579 168.103 22.7532 165.061C23.4291 164.174 24.1331 162.596 24.6822 161.329C26.2451 163.089 28.7936 163.765 30.9197 164.652C34.3411 166.286 37.7485 167.948 41.2122 169.469C41.7331 169.793 42.1696 169.835 42.4653 169.694C38.8749 178.074 34.496 195.862 26.2451 199.932H26.231ZM38.7341 202.749C38.5933 198.256 37.9738 193.777 37.1571 189.355C47.9847 163.244 57.2212 138.598 63.5431 111.289C67.7108 109.782 80.3828 103.191 72.2164 99.5154C75.2436 97.0086 74.1876 92.7412 69.9214 93.1919C70.555 92.5018 70.907 91.7694 71.0196 91.0652C71.1604 91.1075 71.2731 91.1638 71.3716 91.2765C72.0475 91.9525 72.7655 90.8822 72.1883 90.3047C72.8219 89.7414 74.2017 89.516 74.0046 88.4457C78.3835 93.5862 82.3681 99.3042 87.5777 103.614C89.1125 123.373 89.6334 143.273 90.3233 163.103C89.6475 176.553 91.5342 189.904 92.1819 203.312C74.3707 203.242 56.4749 204.594 38.7482 202.749H38.7341ZM131.662 179.821V179.75C131.662 179.75 131.662 179.764 131.691 179.778C131.691 179.792 131.676 179.807 131.662 179.821ZM173.635 176.018C163.948 198.58 150.53 200.397 135.098 181.37C135.281 180.314 134.197 179.525 133.648 178.736C132.761 177.947 132.395 176.624 131.437 175.99C129.733 156.935 128.663 137.837 128.593 118.712C128.382 117.486 128.677 109.585 126.523 110.698C125.678 111.543 126.439 113.36 126.354 114.543C126.002 143.893 129.029 173.089 130.663 202.354C128.283 201.96 125.735 202.354 123.313 202.453C113.471 203.453 103.573 203.171 93.7026 203.298C90.9147 170.173 92.0693 136.823 89.2814 103.712C91.4497 99.0789 93.4069 94.3608 95.3358 89.6287C97.659 91.8821 100.883 93.1355 103.643 94.8538C105.234 95.5016 105.417 93.1074 105.741 92.0793C106.558 88.9245 107.642 85.8402 108.543 82.7136C108.74 81.9954 109.205 81.2771 109.05 80.5166C108.768 79.9391 108.501 79.6434 108.247 79.5448C110.444 80.2912 112.598 81.1222 114.766 81.9249C122.679 85.4881 135.577 86.5021 138.308 96.0368C145.461 117.134 148.784 139.4 153.078 161.216C153.881 163.047 155.331 161.61 154.74 160.16C155.556 160.371 155.711 159.301 155.852 158.667C156.218 157.498 156.626 156.343 157.049 155.188C163.525 159.498 170.368 163.061 177.394 166.371C176.282 169.652 175.057 172.877 173.621 176.032L173.635 176.018ZM178.084 164.286C174.339 162.751 171.143 160.16 167.398 158.596C164.103 156.991 160.949 155.047 157.837 153.076C159.062 150.048 160.329 147.02 161.54 143.978C163.737 145.879 169.65 147.893 170.777 148.611C174.226 150.484 177.394 153.09 180.999 154.583C180.07 157.836 179.126 161.075 178.084 164.286ZM195.276 82.3193C196.656 82.77 198.219 82.0658 199.669 82.3474C202.415 83.3051 200.176 85.6289 198.514 86.3754C197.36 86.9106 196.107 87.995 197.754 88.8964C199.247 88.8541 200.852 87.8823 202.33 88.5865C202.569 91.0371 196.064 93.4031 199.007 94.896C200.176 95.1073 202.26 93.9665 203.161 94.896C204.386 98.1916 197.022 101.036 194.699 102.248C194.15 102.797 194.164 103.628 193.981 104.332C193.643 106.191 193.192 108.036 192.812 109.881C190.32 124.444 185.575 138.499 181.534 152.695C178.929 151.118 176.282 149.428 173.719 147.724C169.89 145.414 166.313 144.471 162.286 142.147C169.355 125.782 176.775 109.571 182.266 92.5863C183.322 89.5583 184.688 86.5303 185.364 83.3896C189.081 77.5872 198.895 74.6437 205.414 73.1508C204.583 75.869 192.108 79.4744 195.29 82.3052L195.276 82.3193Z" fill="#212121"/>
<path d="M43.2961 61.3492C43.2257 61.7858 42.7329 62.0816 42.3246 61.8703C41.156 61.3633 40.0436 60.6732 38.8187 60.3493C37.4952 59.5465 38.4948 57.9691 39.8465 58.7578C40.9448 59.3353 43.4369 59.7859 43.2961 61.3492Z" fill="#212121"/>
<path d="M46.3231 59.2927C45.8726 58.1801 45.0278 56.9407 45.1263 55.7295C46.5203 53.9268 47.5763 57.7998 47.703 58.8279C47.9001 59.7293 46.7174 60.0955 46.3231 59.2786V59.2927Z" fill="#212121"/>
<path d="M53.5182 58.7854C52.3636 58.377 52.7156 56.8559 52.7719 55.9123C52.9831 55.1518 52.5467 53.5181 53.659 53.4336C54.8276 53.7294 54.4475 55.3349 54.5742 56.2503C54.5601 57.0813 54.8276 58.9544 53.5182 58.7854Z" fill="#212121"/>
<path d="M218.086 66.9537C217.213 67.0383 216.326 68.0804 215.523 67.5312C214.355 66.4749 215.509 65.306 216.706 65.0665C217.663 64.8412 219.212 63.8413 219.789 65.1229C220.324 66.2777 218.916 66.658 218.086 66.9397V66.9537Z" fill="#212121"/>
<path d="M221.972 70.4049C221.408 71.4471 218.48 71.1795 217.297 71.4612C215.974 71.0528 216.438 69.6585 217.691 69.5177C218.987 69.236 222.296 68.0107 221.958 70.419L221.972 70.4049Z" fill="#212121"/>
<path d="M221.296 75.8975C220.381 76.8974 218.705 76.1369 217.494 76.4327C216.79 76.4327 216.368 75.2496 217.086 74.9116C218.367 74.2497 221.972 73.3483 221.296 75.8975Z" fill="#212121"/>
<path d="M85.5926 45.6737C84.5788 45.2512 85.8601 42.0683 86.6627 41.8852C87.254 41.7584 87.7891 42.4063 87.6623 42.9696C87.4793 43.4062 87.1132 43.7161 86.9724 44.1949C86.6345 44.7442 86.5078 46.1526 85.5926 45.6737Z" fill="#212121"/>
<path d="M90.6472 45.5471C89.9714 45.1528 90.2107 44.3359 90.436 43.7444C90.6754 43.1247 90.788 41.7164 91.7595 42.2375C92.548 42.7304 92.2242 43.7585 91.9285 44.4486C91.6891 44.9838 91.4075 45.9837 90.6331 45.5471H90.6472Z" fill="#212121"/>
<path d="M96.1947 45.2657C95.2795 44.984 95.6878 43.0404 96.2792 42.6461C97.7717 42.1954 97.5323 45.7445 96.1947 45.2657Z" fill="#212121"/>
<path d="M114.963 47.2372C114.062 46.871 114.288 44.8571 115.301 44.8712C116.554 44.9698 116.104 47.6738 114.963 47.2372Z" fill="#212121"/>
<path d="M118.272 47.012C117.244 46.4909 118.131 44.2938 119.173 45.2515C119.835 45.8149 119.202 47.5331 118.272 47.012Z" fill="#212121"/>
<path d="M130.48 117.177C129.396 116.515 130.339 114.98 130.438 114.008C130.79 113.219 130.564 111.896 131.395 111.459C133.056 111.487 132.113 113.614 131.916 114.571C131.536 115.276 131.606 117.501 130.466 117.163L130.48 117.177Z" fill="#212121"/>
<path d="M133.634 119.388C132.986 118.74 133.563 117.98 134.084 117.487C134.83 116.825 135.647 115.614 136.759 115.895C137.759 116.346 137.351 117.374 136.52 117.726C135.661 118.191 134.69 120.247 133.634 119.388Z" fill="#212121"/>
<path d="M134.408 138.274C133.535 138.105 132.507 137.795 132.183 136.866C132 136.429 132.183 135.753 132.747 135.739C133.437 135.88 133.957 136.472 134.647 136.683C135.436 136.965 135.394 138.457 134.422 138.274H134.408Z" fill="#212121"/>
<path d="M151.712 169.455C150.473 168.737 151.6 167.103 151.769 166.061C152.135 165.174 152.008 163.991 152.67 163.272C153.641 162.667 154.669 164.639 153.81 165.202C153.529 166.019 152.895 170.033 151.712 169.455Z" fill="#212121"/>
<path d="M158.71 168.23C158.063 167.357 155.444 164.836 157.007 163.991C157.851 163.724 159.161 166.597 159.724 167.273C160.231 167.963 159.358 168.949 158.71 168.23Z" fill="#212121"/>
<path d="M89.8446 10.986C87.8734 9.40868 92.2382 7.23979 93.435 6.57786C94.1953 6.2821 94.8008 7.53555 94.1531 7.98622C93.0126 8.80308 91.844 9.60585 90.802 10.5635C90.6331 10.9438 90.2388 11.2255 89.8446 10.972V10.986Z" fill="white"/>
<path d="M94.3503 11.8729C93.5477 11.7462 93.3928 10.6195 94.0546 10.197C95.2936 9.18293 96.5608 8.09848 98.0392 7.45063C98.8277 7.15488 99.4613 8.45057 98.7855 8.91534C97.5605 9.80261 96.237 10.5631 95.0543 11.4926C94.8431 11.6617 94.66 11.9292 94.3503 11.8729Z" fill="white"/>
<path d="M99.2925 11.2674C100.137 9.87309 101.911 9.04216 103.362 8.33797C104.22 8.02813 104.854 9.36608 104.15 9.90126C103.094 10.6899 101.911 11.2674 100.813 11.9716C100.151 12.6335 99.1517 12.2532 99.2925 11.2674Z" fill="white"/>
<path d="M123.623 13.901C123.017 13.2673 123.566 12.5208 124.256 12.3096C125.27 11.7885 126.256 11.2251 127.297 10.7744C128.072 10.4646 128.706 11.7744 128.03 12.2251C127.1 12.6194 124.397 14.7038 123.609 13.901H123.623Z" fill="white"/>
<path d="M126.199 16.5769C124.848 15.9713 125.819 14.6615 126.791 14.239C127.509 13.901 128.635 12.7603 129.269 13.7461C129.832 14.6897 128.593 15.0981 128.016 15.5629C127.396 15.8305 126.917 16.6333 126.213 16.5769H126.199Z" fill="white"/>
<path d="M128.776 19.1119C127.255 18.6049 128.311 17.0838 129.339 16.6754C130.268 16.1402 132.437 14.8304 132.352 16.8585C132.014 17.6612 130.888 17.788 130.226 18.2668C129.677 18.4359 129.325 19.0837 128.776 19.0978V19.1119Z" fill="white"/>
<path d="M44.6758 215.453C43.831 214.932 44.4224 213.932 44.7603 213.27C45.3376 212.439 45.6474 211.087 46.647 210.721C47.8861 210.89 47.5341 212.101 46.9005 212.763C46.281 213.383 45.7037 216.044 44.6758 215.439V215.453Z" fill="white"/>
<path d="M46.5907 221.72C45.2953 221.072 49.1251 215.65 49.7165 214.608C50.4909 213.072 51.9552 214.002 51.2512 215.129C50.1107 216.72 49.2518 218.481 48.2803 220.171C47.8298 220.72 47.5482 222.354 46.5907 221.706V221.72Z" fill="white"/>
<path d="M123.088 213.692C122.13 213.016 117.976 210.819 118.314 209.678C118.878 208.256 120.567 210.284 121.37 210.622C122.243 211.424 124.256 211.946 124.031 213.368C123.904 213.762 123.425 213.903 123.088 213.692Z" fill="white"/>
<path d="M34.7634 23.3085C34.5522 23.0128 34.341 22.7311 34.1157 22.4494C33.102 21.196 31.9333 20.0552 30.9759 18.7736C29.7932 17.3793 28.7512 15.816 27.484 14.4781C27.1743 14.1542 26.8645 13.8443 26.5266 13.5626C26.3013 13.4077 26.0619 13.3373 25.8226 13.3232C24.6821 13.281 23.4571 14.6612 22.5419 15.1682C20.0779 16.8301 17.797 18.7313 15.2625 20.2946C14.3333 21.1537 11.0385 22.3649 11.1934 23.6325C10.5317 25.6605 14.4037 27.6604 15.6568 28.9561C17.5717 30.7588 19.1627 33.1671 21.683 34.153C22.373 34.3783 23.1474 33.9981 23.3727 33.308C26.0479 30.7025 29.2018 28.6603 32.2149 26.4915C32.8204 25.8999 34.0031 25.407 34.5663 24.6887C34.862 24.3085 34.9887 23.8719 34.7775 23.3085H34.7634ZM21.9224 31.6038C20.1342 30.5476 18.8248 28.8998 17.3042 27.5196C15.9666 26.2943 14.3755 25.3507 13.2491 23.9141C16.741 21.8016 19.9934 19.3792 23.3163 17.0131C23.8655 16.6188 24.4146 16.2245 24.9778 15.8442C25.2735 15.647 25.5551 15.4358 25.8507 15.2386C28.2303 17.8582 30.3564 20.7171 32.6936 23.379C32.6936 23.379 32.6936 23.379 32.6936 23.393C32.06 23.8437 31.4124 24.3085 30.7647 24.7732C30.7647 24.7732 30.7365 24.7873 30.7224 24.8014C30.2578 25.1253 29.7932 25.4633 29.3426 25.7873C26.78 27.6322 24.2597 29.5194 21.9083 31.5757L21.9224 31.6038Z" fill="#723D9E"/>
<path d="M38.5651 22.0554C37.2556 22.9709 35.8617 23.7455 34.5523 24.675C34.2988 24.8581 34.0454 25.0553 33.792 25.2524C33.0739 25.6186 32.1024 26.7031 31.3139 26.4777C31.1027 26.4214 30.9056 26.2665 30.7366 25.9848C30.455 25.52 30.5254 25.1398 30.7507 24.8158C30.7507 24.8018 30.7648 24.7877 30.7788 24.7736C31.0464 24.4356 31.4969 24.168 31.8771 23.9708C32.1446 23.7736 32.4121 23.5906 32.6937 23.3934C33.1584 23.0695 33.6371 22.7596 34.1158 22.4357C37.2556 20.3795 40.5504 18.4359 43.2115 15.8586C43.3382 14.2108 39.776 16.5346 42.0569 12.3095C41.0573 12.3095 39.3817 13.0278 39.424 11.3941C39.6352 10.6758 40.0998 10.0139 40.0153 9.22521C39.3254 9.18296 38.6496 9.30971 38.0019 9.53505C37.326 9.56322 36.8614 8.77453 37.0304 8.15485C36.974 6.38031 36.3686 1.09893 33.7779 1.9017C35.3971 10.2533 32.7782 10.2674 27.47 14.4503C27.1462 14.7038 26.8083 14.9854 26.4563 15.2671C26.231 15.3516 26.0198 15.3234 25.8367 15.2389C25.4707 15.0559 25.2031 14.577 25.2595 14.1545C25.3439 13.8869 25.5411 13.5911 25.8086 13.2954C26.8364 12.1687 28.9343 10.9575 29.8355 10.1406C35.0732 7.35208 30.4268 3.33823 32.8064 0.282073C36.8332 -1.39388 38.5088 4.39451 38.6777 7.4225C40.7897 7.02815 42.0147 8.50694 41.5219 10.535C43.2537 10.2674 44.1971 12.1969 43.4086 13.6052C47.9283 17.0276 40.8742 19.9992 38.551 22.0554H38.5651Z" fill="#723D9E"/>
<path d="M29.7088 26.3224C27.5123 22.9141 24.64 19.8298 22.894 16.168C22.4857 14.0273 25.527 15.154 25.0764 16.7032C27.1744 19.7453 29.7229 22.6747 31.4265 25.9139C31.5392 26.9702 30.1453 27.2237 29.7088 26.3224Z" fill="#723D9E"/>
<path d="M190.559 12.69C188.743 8.21142 184.265 7.63399 184.153 13.2815C184.28 15.6476 185.927 17.4785 187.067 19.422C187.546 20.267 188.053 21.098 188.391 22.0134C188.588 22.5486 188.673 23.2246 189.264 23.4781C190.235 23.957 191.08 21.6613 191.855 21.098C193.446 19.2389 195.684 17.7179 196.431 15.2814C198.022 10.5775 193.066 8.56352 190.545 12.69H190.559ZM188.447 12.3943C188.18 12.0844 187.912 11.8168 187.729 11.4366C188.081 11.7887 188.405 12.1971 188.644 12.6337C188.588 12.5492 188.518 12.4647 188.461 12.3802L188.447 12.3943Z" fill="#723D9E"/>
<path d="M23.063 26.4218C22.5561 25.8162 22.9785 24.5487 23.8797 24.9149C25.8649 25.0416 24.3865 28.0133 23.063 26.4218Z" fill="#723D9E"/>
<path d="M160.85 42.1388C162.92 32.6464 160.174 34.421 155.077 40.0544C154.909 39.9981 154.725 39.9136 154.528 39.8291C153.134 39.1672 151.234 37.8151 150.037 38.1813C149.347 38.6461 149.713 39.8009 150.431 40.0263C150.713 41.1389 151.29 42.1388 151.909 43.0965C151.515 43.3359 151.149 43.5754 150.797 43.8007C144.517 47.9413 144.32 50.6172 153.543 47.9695C154.669 50.0257 154.359 53.2508 156.584 54.5184C158.147 54.955 159.006 49.1947 159.752 48.0117C169.143 47.6455 169.073 46.1386 160.822 42.1388H160.85ZM159.808 38.0686C159.794 38.2236 159.766 38.3785 159.752 38.5193C158.921 44.3922 157.668 42.5332 163.596 45.6316C156.95 46.5329 158.964 45.0823 156.626 51.589C155.852 49.8003 155.838 47.3216 154.205 46.0822C152.839 45.6738 151.459 46.5893 150.107 46.7583C152.881 44.0824 155.106 44.9696 153.008 41.2797C152.951 41.167 152.881 41.0685 152.825 40.9558C153.782 41.2515 154.585 41.8571 155.528 42.1106C155.739 42.1106 155.88 42.0121 156.021 41.8853C156.063 41.8431 156.105 41.8008 156.148 41.7445C157.105 40.7023 158.288 39.5897 159.358 38.5193C159.513 38.3644 159.653 38.2095 159.808 38.0686Z" fill="#723D9E"/>
<path d="M156.288 52.8001C156.035 52.7297 155.824 52.5607 155.697 52.3354C154.556 51.8002 155.232 48.1666 154.88 46.8287C154.613 46.9413 154.345 47.0399 154.078 47.1385C153.782 48.1948 151.543 48.2652 150.614 48.2229C149.375 47.899 149.685 45.7865 150.994 45.885C150.727 44.5471 152.613 44.0683 153.346 43.2373C153.05 42.8571 152.853 42.336 153.022 41.8712C152.839 41.4487 152.571 41.0825 152.346 40.6882C151.909 40.0544 152.416 38.9277 153.261 39.308C154.247 39.9136 154.542 41.1811 155.429 41.9275C155.598 41.843 155.767 41.7304 155.95 41.6599C156.57 40.8008 157.626 37.4912 159.006 38.801C159.499 38.139 160.414 38.7446 160.484 39.4206C160.54 40.3361 160.076 41.1952 159.766 42.0261C160.752 42.3219 161.442 43.1669 162.146 43.8711C162.892 43.7725 163.483 44.5753 163.244 45.2654C164.075 45.6879 164.145 47.3075 163.019 47.2793C161.723 48.2934 159.71 47.7723 158.33 47.0822C158.302 47.9413 158.302 48.6595 158.288 49.4764C158.457 50.2651 158.527 52.0678 157.246 51.4763C157.246 52.0819 157.077 52.9832 156.274 52.7861L156.288 52.8001Z" fill="#723D9E"/>
<path d="M156.021 41.8993C155.993 42.1951 155.81 42.4908 155.43 42.7584C154.754 42.8007 153.853 42.0542 153.022 41.2937C152.811 41.0966 152.6 40.8994 152.402 40.7163C152.064 40.3924 151.741 40.1107 151.473 39.9276C151.769 41.2092 152.529 42.5049 152.416 43.8147C152.374 43.9133 152.332 43.9978 152.276 44.0682C152.177 44.1809 152.064 44.2654 151.938 44.2935C151.558 44.4062 151.093 44.1809 150.854 43.7865C150.797 43.702 150.755 43.6034 150.727 43.4908C149.671 39.8854 146.883 32.8576 153.149 38.646C153.444 38.9558 154.007 39.3502 154.557 39.8009C155.232 40.3501 155.88 40.9839 156.021 41.5895C156.049 41.6881 156.049 41.7867 156.049 41.8852L156.021 41.8993Z" fill="#723D9E"/>
</svg>
