<svg width="24" height="25" viewBox="0 0 24 25" fill="none" xmlns="http://www.w3.org/2000/svg">
<g opacity="0.48" clip-path="url(#clip0_626_2598)">
<path d="M8.4375 5.65625C8.4375 4.36391 7.38609 3.3125 6.09375 3.3125C4.80141 3.3125 3.75 4.36391 3.75 5.65625C3.75 6.94859 4.80141 8 6.09375 8C7.38609 8 8.4375 6.94859 8.4375 5.65625ZM6.09375 7.0625C5.31834 7.0625 4.6875 6.43166 4.6875 5.65625C4.6875 4.88084 5.31834 4.25 6.09375 4.25C6.86916 4.25 7.5 4.88084 7.5 5.65625C7.5 6.43166 6.86916 7.0625 6.09375 7.0625Z" fill="#212121"/>
<path d="M6.09375 12.6875C9.49486 12.6875 12.1875 9.9148 12.1875 6.59375C12.1875 3.23366 9.45389 0.5 6.09375 0.5C2.73361 0.5 0 3.23366 0 6.59375C0 9.91456 2.69217 12.6875 6.09375 12.6875ZM3.75234 11.1881C3.80152 9.9388 4.83262 8.9375 6.09375 8.9375C7.35488 8.9375 8.38598 9.9388 8.43516 11.1881C7.71422 11.556 6.91045 11.75 6.09375 11.75C5.27705 11.75 4.47328 11.556 3.75234 11.1881ZM6.09375 1.4375C8.93691 1.4375 11.25 3.75059 11.25 6.59375C11.25 8.16908 10.5213 9.65291 9.30872 10.6236C9.00333 9.12842 7.67784 8 6.09375 8C4.50966 8 3.18417 9.12842 2.87878 10.6236C1.66622 9.65295 0.9375 8.16913 0.9375 6.59375C0.9375 3.75059 3.25059 1.4375 6.09375 1.4375Z" fill="#212121"/>
<path d="M20.25 17.4688C20.25 16.1764 19.1986 15.125 17.9062 15.125C16.6139 15.125 15.5625 16.1764 15.5625 17.4688C15.5625 18.7611 16.6139 19.8125 17.9062 19.8125C19.1986 19.8125 20.25 18.7611 20.25 17.4688ZM17.9062 18.875C17.1308 18.875 16.5 18.2442 16.5 17.4688C16.5 16.6933 17.1308 16.0625 17.9062 16.0625C18.6817 16.0625 19.3125 16.6933 19.3125 17.4688C19.3125 18.2442 18.6817 18.875 17.9062 18.875Z" fill="#212121"/>
<path d="M17.9062 12.3125C14.5461 12.3125 11.8125 15.0462 11.8125 18.4062C11.8125 21.7273 14.5046 24.5 17.9062 24.5C21.3073 24.5 24 21.7273 24 18.4062C24 15.0462 21.2664 12.3125 17.9062 12.3125ZM15.5648 23.0006C15.614 21.7513 16.6451 20.75 17.9062 20.75C19.1674 20.75 20.1985 21.7513 20.2477 23.0006C19.5267 23.3685 18.723 23.5625 17.9062 23.5625C17.0895 23.5625 16.2858 23.3685 15.5648 23.0006ZM21.1212 22.4361C20.8158 20.9409 19.4903 19.8125 17.9062 19.8125C16.3222 19.8125 14.9967 20.9409 14.6913 22.4361C13.4787 21.4655 12.75 19.9816 12.75 18.4062C12.75 15.5631 15.0631 13.25 17.9062 13.25C20.7494 13.25 23.0625 15.5631 23.0625 18.4062C23.0625 19.9816 22.3338 21.4654 21.1212 22.4361Z" fill="#212121"/>
<path d="M11.0625 22.3438C9.25318 22.3438 7.78126 20.8718 7.78126 19.0625V18.5938H8.25001C8.42757 18.5938 8.58985 18.4934 8.66926 18.3346C8.74866 18.1758 8.73151 17.9858 8.62501 17.8438L5.81251 14.0938C5.72396 13.9757 5.58502 13.9062 5.43751 13.9062C5.28999 13.9062 5.15105 13.9757 5.06251 14.0938L2.25001 17.8438C2.14351 17.9858 2.1263 18.1758 2.20576 18.3346C2.28521 18.4934 2.44744 18.5938 2.62501 18.5938H3.09376V19.0625C3.09376 21.3887 4.98629 23.2812 7.31251 23.2812H11.0625C11.3214 23.2812 11.5313 23.0714 11.5313 22.8125C11.5313 22.5536 11.3214 22.3438 11.0625 22.3438ZM7.31251 22.3438C5.50318 22.3438 4.03126 20.8718 4.03126 19.0625V18.125C4.03126 17.8661 3.82135 17.6562 3.56251 17.6562L5.43751 15.1563L7.31251 17.6562C7.05366 17.6562 6.84376 17.8661 6.84376 18.125V19.0625C6.84376 20.3863 7.45665 21.5697 8.41365 22.3438H7.31251Z" fill="#212121"/>
<path d="M12.9375 2.65625C14.7468 2.65625 16.2188 4.12822 16.2188 5.9375V6.40625H15.75C15.5724 6.40625 15.4102 6.50656 15.3308 6.66537C15.2513 6.82419 15.2685 7.01422 15.375 7.15625L18.1875 10.9062C18.276 11.0243 18.415 11.0938 18.5625 11.0938C18.71 11.0938 18.849 11.0243 18.9375 10.9062L21.75 7.15625C21.8565 7.01422 21.8737 6.82419 21.7943 6.66537C21.7148 6.50656 21.5526 6.40625 21.375 6.40625H20.9063V5.9375C20.9063 5.81112 20.9006 5.68348 20.8894 5.55809C20.8664 5.30023 20.6387 5.10992 20.3808 5.13289C20.1229 5.15591 19.9326 5.38362 19.9556 5.64148C19.9643 5.73922 19.9688 5.83883 19.9688 5.93745V6.87495C19.9688 7.13384 20.1787 7.3437 20.4375 7.3437L18.5625 9.84369L16.6875 7.34375C16.9463 7.34375 17.1563 7.13389 17.1563 6.875V5.9375C17.1563 4.61366 16.5434 3.4303 15.5864 2.65625H16.6875C17.0624 2.65625 17.4298 2.71883 17.7795 2.84225C18.0238 2.92827 18.2913 2.8003 18.3775 2.55617C18.4636 2.31205 18.3356 2.0443 18.0915 1.95814C17.6413 1.79928 17.169 1.71875 16.6875 1.71875H12.9375C12.6787 1.71875 12.4688 1.92861 12.4688 2.1875C12.4688 2.44639 12.6787 2.65625 12.9375 2.65625Z" fill="#212121"/>
<path d="M19.6406 4.10938C19.8995 4.10938 20.1094 3.89951 20.1094 3.64062C20.1094 3.38174 19.8995 3.17188 19.6406 3.17188C19.3817 3.17188 19.1719 3.38174 19.1719 3.64062C19.1719 3.89951 19.3817 4.10938 19.6406 4.10938Z" fill="#212121"/>
</g>
<defs>
<clipPath id="clip0_626_2598">
<rect width="24" height="24" fill="white" transform="translate(0 0.5)"/>
</clipPath>
</defs>
</svg>
